<?xml version="1.0" encoding="UTF-8" standalone="no"?>
<!-- Created with Inkscape (http://www.inkscape.org/) -->

<svg
   xmlns:dc="http://purl.org/dc/elements/1.1/"
   xmlns:cc="http://creativecommons.org/ns#"
   xmlns:rdf="http://www.w3.org/1999/02/22-rdf-syntax-ns#"
   xmlns:svg="http://www.w3.org/2000/svg"
   xmlns="http://www.w3.org/2000/svg"
   xmlns:sodipodi="http://sodipodi.sourceforge.net/DTD/sodipodi-0.dtd"
   xmlns:inkscape="http://www.inkscape.org/namespaces/inkscape"
   id="svg2"
   version="1.1"
   inkscape:version="0.48.4 r9939"
   width="1214.6993"
   height="416.29001"
   xml:space="preserve"
   sodipodi:docname="1286 Wiresmith Logo Concepts v3 (2).pdf"><metadata
     id="metadata8"><rdf:RDF><cc:Work
         rdf:about=""><dc:format>image/svg+xml</dc:format><dc:type
           rdf:resource="http://purl.org/dc/dcmitype/StillImage" /><dc:title></dc:title></cc:Work></rdf:RDF></metadata><defs
     id="defs6"><clipPath
       clipPathUnits="userSpaceOnUse"
       id="clipPath16"><path
         d="m 0,1417.32 1417.32,0 L 1417.32,0 0,0 0,1417.32 z"
         id="path18"
         inkscape:connector-curvature="0" /></clipPath></defs><sodipodi:namedview
     pagecolor="#ffffff"
     bordercolor="#666666"
     borderopacity="1"
     objecttolerance="10"
     gridtolerance="10"
     guidetolerance="10"
     inkscape:pageopacity="0"
     inkscape:pageshadow="2"
     inkscape:window-width="640"
     inkscape:window-height="480"
     id="namedview4"
     showgrid="false"
     fit-margin-top="20"
     fit-margin-left="20"
     fit-margin-right="20"
     fit-margin-bottom="20"
     inkscape:zoom="0.13320915"
     inkscape:cx="606.41065"
     inkscape:cy="208.1463"
     inkscape:window-x="2354"
     inkscape:window-y="126"
     inkscape:window-maximized="0"
     inkscape:current-layer="g10" /><g
     id="g10"
     inkscape:groupmode="layer"
     inkscape:label="1286 Wiresmith Logo Concepts v3 (2)"
     transform="matrix(1.25,0,0,-1.25,-279.41438,1093.9686)"><g
       id="g12"><g
         id="g14"
         clip-path="url(#clipPath16)"><g
           id="g20"
           transform="translate(686.2515,785.1514)"><path
             d="m 0,0 -18.175,-67.438 c -0.3,-0.981 -0.79,-1.172 -1.688,-1.172 l -1.963,0 c -0.98,0 -1.471,0.191 -1.662,1.064 l -14.658,51.823 c -0.79,2.861 -1.471,5.995 -2.056,8.939 l -0.288,0 c -0.599,-2.944 -1.281,-6.078 -2.179,-8.939 l -14.634,-51.715 c -0.198,-0.981 -0.706,-1.172 -1.688,-1.172 l -1.854,0 c -0.981,0 -1.471,0.191 -1.686,1.064 L -80.815,0 c -0.191,0.789 -0.084,1.197 0.79,1.197 l 2.452,0 c 1.09,0 1.472,-0.216 1.688,-1.089 l 14.059,-52.886 c 0.682,-2.862 1.364,-7 1.963,-9.347 l 0.191,0 c 0.598,2.453 1.388,6.294 2.171,9.237 l 14.641,51.416 c 0.191,0.981 0.789,1.19 1.663,1.19 l 1.986,0 c 0.981,0 1.472,-0.209 1.663,-1.19 l 14.658,-51.606 c 0.766,-2.965 1.555,-6.785 2.046,-9.047 l 0.299,0 c 0.408,2.153 1.197,6.187 1.771,9.047 L -4.606,0.108 c 0.19,0.873 0.574,1.089 1.663,1.089 l 2.154,0 C 0.108,1.197 0.3,0.789 0,0"
             style="fill:#656263;fill-opacity:1;fill-rule:nonzero;stroke:none"
             id="path22"
             inkscape:connector-curvature="0" /></g><g
           id="g24"
           transform="translate(686.2515,785.1514)"><path
             d="m 0,0 -18.175,-67.438 c -0.3,-0.981 -0.79,-1.172 -1.688,-1.172 l -1.963,0 c -0.98,0 -1.471,0.191 -1.662,1.064 l -14.658,51.823 c -0.79,2.861 -1.471,5.995 -2.056,8.939 l -0.288,0 c -0.599,-2.944 -1.281,-6.078 -2.179,-8.939 l -14.634,-51.715 c -0.198,-0.981 -0.706,-1.172 -1.688,-1.172 l -1.854,0 c -0.981,0 -1.471,0.191 -1.686,1.064 L -80.815,0 c -0.191,0.789 -0.084,1.197 0.79,1.197 l 2.452,0 c 1.09,0 1.472,-0.216 1.688,-1.089 l 14.059,-52.886 c 0.682,-2.862 1.364,-7 1.963,-9.347 l 0.191,0 c 0.598,2.453 1.388,6.294 2.171,9.237 l 14.641,51.416 c 0.191,0.981 0.789,1.19 1.663,1.19 l 1.986,0 c 0.981,0 1.472,-0.209 1.663,-1.19 l 14.658,-51.606 c 0.766,-2.965 1.555,-6.785 2.046,-9.047 l 0.299,0 c 0.408,2.153 1.197,6.187 1.771,9.047 L -4.606,0.108 c 0.19,0.873 0.574,1.089 1.663,1.089 l 2.154,0 C 0.108,1.197 0.3,0.789 0,0 z"
             style="fill:none;stroke:#656263;stroke-width:3;stroke-linecap:butt;stroke-linejoin:miter;stroke-miterlimit:10;stroke-opacity:1;stroke-dasharray:none"
             id="path26"
             inkscape:connector-curvature="0" /></g><g
           id="g28"
           transform="translate(707.7871,786.3481)"><path
             d="M 0,0 2.056,0 C 2.93,0 3.228,-0.299 3.228,-1.28 l 0,-67.247 c 0,-1.005 -0.298,-1.28 -1.172,-1.28 l -2.056,0 c -0.996,0 -1.271,0.275 -1.271,1.28 l 0,67.247 C -1.271,-0.299 -0.996,0 0,0"
             style="fill:#656263;fill-opacity:1;fill-rule:nonzero;stroke:none"
             id="path30"
             inkscape:connector-curvature="0" /></g><g
           id="g32"
           transform="translate(707.7871,786.3481)"><path
             d="M 0,0 2.056,0 C 2.93,0 3.228,-0.299 3.228,-1.28 l 0,-67.247 c 0,-1.005 -0.298,-1.28 -1.172,-1.28 l -2.056,0 c -0.996,0 -1.271,0.275 -1.271,1.28 l 0,67.247 C -1.271,-0.299 -0.996,0 0,0 z"
             style="fill:none;stroke:#656263;stroke-width:3;stroke-linecap:butt;stroke-linejoin:miter;stroke-miterlimit:10;stroke-opacity:1;stroke-dasharray:none"
             id="path34"
             inkscape:connector-curvature="0" /></g><g
           id="g36"
           transform="translate(765.9707,782.1006)"><path
             d="m 0,0 -24.445,0 0,-30.655 24.445,0 c 9.86,0 15.746,5.396 15.746,15.231 C 15.746,-5.587 10.027,0 0,0 m 20.485,-15.424 c 0,-11.307 -6.701,-18.091 -17.326,-18.967 3.758,-1.577 5.887,-4.03 8.064,-8.063 L 22.232,-64.28 c 0.515,-0.705 0.299,-1.279 -0.681,-1.279 l -1.879,0 c -1.58,0 -2.046,0.191 -2.437,1.064 L 7,-44.225 c -3.242,6.485 -7,9.321 -15.231,9.321 l -16.214,0 0,-29.376 c 0,-1.004 -0.299,-1.279 -1.198,-1.279 l -2.045,0 c -1.029,0 -1.281,0.275 -1.281,1.279 l 0,67.248 c 0,0.981 0.252,1.28 1.281,1.28 l 28.203,0 c 12.372,0 19.97,-7.192 19.97,-19.672"
             style="fill:#656263;fill-opacity:1;fill-rule:nonzero;stroke:none"
             id="path38"
             inkscape:connector-curvature="0" /></g><g
           id="g40"
           transform="translate(765.9707,782.1006)"><path
             d="m 0,0 -24.445,0 0,-30.655 24.445,0 c 9.86,0 15.746,5.396 15.746,15.231 C 15.746,-5.587 10.027,0 0,0 z m 20.485,-15.424 c 0,-11.307 -6.701,-18.091 -17.326,-18.967 3.758,-1.577 5.887,-4.03 8.064,-8.063 L 22.232,-64.28 c 0.515,-0.705 0.299,-1.279 -0.681,-1.279 l -1.879,0 c -1.58,0 -2.046,0.191 -2.437,1.064 L 7,-44.225 c -3.242,6.485 -7,9.321 -15.231,9.321 l -16.214,0 0,-29.376 c 0,-1.004 -0.299,-1.279 -1.198,-1.279 l -2.045,0 c -1.029,0 -1.281,0.275 -1.281,1.279 l 0,67.248 c 0,0.981 0.252,1.28 1.281,1.28 l 28.203,0 c 12.372,0 19.97,-7.192 19.97,-19.672 z"
             style="fill:none;stroke:#656263;stroke-width:3;stroke-linecap:butt;stroke-linejoin:miter;stroke-miterlimit:10;stroke-opacity:1;stroke-dasharray:none"
             id="path42"
             inkscape:connector-curvature="0" /></g><g
           id="g44"
           transform="translate(852.4189,785.0684)"><path
             d="m 0,0 0,-1.77 c 0,-0.898 -0.3,-1.198 -1.28,-1.198 l -36.866,0 0,-28.119 32.641,0 c 0.85,0 1.149,-0.275 1.149,-1.172 l 0,-1.772 c 0,-0.981 -0.299,-1.28 -1.149,-1.28 l -32.641,0 0,-28.992 38.229,0 c 0.897,0 1.281,-0.299 1.281,-1.173 l 0,-1.772 c 0,-1.004 -0.384,-1.279 -1.281,-1.279 l -41.472,0 c -0.98,0 -1.281,0.275 -1.281,1.279 l 0,67.248 c 0,0.981 0.301,1.28 1.281,1.28 l 40.109,0 C -0.3,1.28 0,0.981 0,0"
             style="fill:#656263;fill-opacity:1;fill-rule:nonzero;stroke:none"
             id="path46"
             inkscape:connector-curvature="0" /></g><g
           id="g48"
           transform="translate(852.4189,785.0684)"><path
             d="m 0,0 0,-1.77 c 0,-0.898 -0.3,-1.198 -1.28,-1.198 l -36.866,0 0,-28.119 32.641,0 c 0.85,0 1.149,-0.275 1.149,-1.172 l 0,-1.772 c 0,-0.981 -0.299,-1.28 -1.149,-1.28 l -32.641,0 0,-28.992 38.229,0 c 0.897,0 1.281,-0.299 1.281,-1.173 l 0,-1.772 c 0,-1.004 -0.384,-1.279 -1.281,-1.279 l -41.472,0 c -0.98,0 -1.281,0.275 -1.281,1.279 l 0,67.248 c 0,0.981 0.301,1.28 1.281,1.28 l 40.109,0 C -0.3,1.28 0,0.981 0,0 z"
             style="fill:none;stroke:#656263;stroke-width:3;stroke-linecap:butt;stroke-linejoin:miter;stroke-miterlimit:10;stroke-opacity:1;stroke-dasharray:none"
             id="path50"
             inkscape:connector-curvature="0" /></g><g
           id="g52"
           transform="translate(897.7275,787.7139)"><path
             d="m 0,0 c 13.186,0 20.653,-4.823 25.772,-15.235 0.468,-0.897 0.168,-1.387 -0.595,-1.686 l -1.963,-0.873 c -0.815,-0.299 -1.113,-0.299 -1.58,0.598 C 17.194,-8.45 11.008,-4.333 0,-4.333 c -12.671,0 -20.054,-5.504 -20.054,-14.933 0,-11.607 10.925,-13.485 22.017,-14.657 11.989,-1.365 24.493,-3.435 24.493,-18.584 0,-12.779 -8.88,-20.053 -25.989,-20.053 -13.736,0 -21.718,5.503 -26.408,17.219 -0.431,0.98 -0.299,1.362 0.681,1.77 l 1.831,0.682 c 0.898,0.299 1.198,0.191 1.711,-0.791 4.225,-9.919 11.176,-14.549 22.185,-14.549 14.167,0 21.466,5.12 21.466,15.531 0,11.608 -10.243,13.08 -20.951,14.359 -12.29,1.473 -25.688,3.542 -25.688,18.775 C -24.706,-7.576 -15.531,0 0,0"
             style="fill:#656263;fill-opacity:1;fill-rule:nonzero;stroke:none"
             id="path54"
             inkscape:connector-curvature="0" /></g><g
           id="g56"
           transform="translate(897.7275,787.7139)"><path
             d="m 0,0 c 13.186,0 20.653,-4.823 25.772,-15.235 0.468,-0.897 0.168,-1.387 -0.595,-1.686 l -1.963,-0.873 c -0.815,-0.299 -1.113,-0.299 -1.58,0.598 C 17.194,-8.45 11.008,-4.333 0,-4.333 c -12.671,0 -20.054,-5.504 -20.054,-14.933 0,-11.607 10.925,-13.485 22.017,-14.657 11.989,-1.365 24.493,-3.435 24.493,-18.584 0,-12.779 -8.88,-20.053 -25.989,-20.053 -13.736,0 -21.718,5.503 -26.408,17.219 -0.431,0.98 -0.299,1.362 0.681,1.77 l 1.831,0.682 c 0.898,0.299 1.198,0.191 1.711,-0.791 4.225,-9.919 11.176,-14.549 22.185,-14.549 14.167,0 21.466,5.12 21.466,15.531 0,11.608 -10.243,13.08 -20.951,14.359 -12.29,1.473 -25.688,3.542 -25.688,18.775 C -24.706,-7.576 -15.531,0 0,0 z"
             style="fill:none;stroke:#656263;stroke-width:3;stroke-linecap:butt;stroke-linejoin:miter;stroke-miterlimit:10;stroke-opacity:1;stroke-dasharray:none"
             id="path58"
             inkscape:connector-curvature="0" /></g><g
           id="g60"
           transform="translate(1008.6211,785.0684)"><path
             d="m 0,0 0,-67.248 c 0,-1.004 -0.301,-1.279 -1.197,-1.279 l -1.963,0 c -0.894,0 -1.151,0.275 -1.151,1.279 l 0,45.123 c 0,5.112 0.17,10.625 0.685,16.405 l -0.216,0 c -2.476,-5.097 -4.733,-9.428 -7.384,-14.06 l -17.493,-31.062 c -0.383,-0.789 -0.764,-0.981 -1.579,-0.981 l -1.281,0 c -0.848,0 -1.28,0.107 -1.663,0.981 l -17.792,31.469 c -2.561,4.416 -4.706,8.64 -7.083,13.653 l -0.168,0 c 0.383,-5.78 0.55,-11.092 0.55,-16.405 l 0,-45.123 c 0,-1.004 -0.298,-1.279 -1.281,-1.279 l -1.745,0 c -0.982,0 -1.282,0.275 -1.282,1.279 l 0,67.248 c 0,0.981 0.3,1.28 1.282,1.28 l 1.578,0 c 1.066,0 1.365,-0.299 1.879,-1.089 l 26.325,-46.509 26.157,46.401 c 0.511,0.898 0.768,1.197 1.746,1.197 l 1.879,0 C -0.301,1.28 0,0.981 0,0"
             style="fill:#656263;fill-opacity:1;fill-rule:nonzero;stroke:none"
             id="path62"
             inkscape:connector-curvature="0" /></g><g
           id="g64"
           transform="translate(1008.6211,785.0684)"><path
             d="m 0,0 0,-67.248 c 0,-1.004 -0.301,-1.279 -1.197,-1.279 l -1.963,0 c -0.894,0 -1.151,0.275 -1.151,1.279 l 0,45.123 c 0,5.112 0.17,10.625 0.685,16.405 l -0.216,0 c -2.476,-5.097 -4.733,-9.428 -7.384,-14.06 l -17.493,-31.062 c -0.383,-0.789 -0.764,-0.981 -1.579,-0.981 l -1.281,0 c -0.848,0 -1.28,0.107 -1.663,0.981 l -17.792,31.469 c -2.561,4.416 -4.706,8.64 -7.083,13.653 l -0.168,0 c 0.383,-5.78 0.55,-11.092 0.55,-16.405 l 0,-45.123 c 0,-1.004 -0.298,-1.279 -1.281,-1.279 l -1.745,0 c -0.982,0 -1.282,0.275 -1.282,1.279 l 0,67.248 c 0,0.981 0.3,1.28 1.282,1.28 l 1.578,0 c 1.066,0 1.365,-0.299 1.879,-1.089 l 26.325,-46.509 26.157,46.401 c 0.511,0.898 0.768,1.197 1.746,1.197 l 1.879,0 C -0.301,1.28 0,0.981 0,0 z"
             style="fill:none;stroke:#656263;stroke-width:3;stroke-linecap:butt;stroke-linejoin:miter;stroke-miterlimit:10;stroke-opacity:1;stroke-dasharray:none"
             id="path66"
             inkscape:connector-curvature="0" /></g><g
           id="g68"
           transform="translate(1035.8359,786.3481)"><path
             d="m 0,0 2.094,0 c 0.849,0 1.148,-0.299 1.148,-1.28 l 0,-67.247 c 0,-1.005 -0.299,-1.28 -1.148,-1.28 l -2.094,0 c -0.98,0 -1.279,0.275 -1.279,1.28 l 0,67.247 C -1.279,-0.299 -0.98,0 0,0"
             style="fill:#656263;fill-opacity:1;fill-rule:nonzero;stroke:none"
             id="path70"
             inkscape:connector-curvature="0" /></g><g
           id="g72"
           transform="translate(1035.8359,786.3481)"><path
             d="m 0,0 2.094,0 c 0.849,0 1.148,-0.299 1.148,-1.28 l 0,-67.247 c 0,-1.005 -0.299,-1.28 -1.148,-1.28 l -2.094,0 c -0.98,0 -1.279,0.275 -1.279,1.28 l 0,67.247 C -1.279,-0.299 -0.98,0 0,0 z"
             style="fill:none;stroke:#656263;stroke-width:3;stroke-linecap:butt;stroke-linejoin:miter;stroke-miterlimit:10;stroke-opacity:1;stroke-dasharray:none"
             id="path74"
             inkscape:connector-curvature="0" /></g><g
           id="g76"
           transform="translate(1108.0039,785.0684)"><path
             d="m 0,0 0,-1.77 c 0,-0.898 -0.314,-1.198 -1.248,-1.198 l -21.342,0 0,-64.28 c 0,-1.004 -0.338,-1.279 -1.189,-1.279 l -2.08,0 c -0.996,0 -1.246,0.275 -1.246,1.279 l 0,64.28 -21.35,0 c -1.016,0 -1.268,0.3 -1.268,1.198 l 0,1.77 c 0,0.981 0.252,1.28 1.268,1.28 l 47.207,0 C -0.314,1.28 0,0.981 0,0"
             style="fill:#656263;fill-opacity:1;fill-rule:nonzero;stroke:none"
             id="path78"
             inkscape:connector-curvature="0" /></g><g
           id="g80"
           transform="translate(1108.0039,785.0684)"><path
             d="m 0,0 0,-1.77 c 0,-0.898 -0.314,-1.198 -1.248,-1.198 l -21.342,0 0,-64.28 c 0,-1.004 -0.338,-1.279 -1.189,-1.279 l -2.08,0 c -0.996,0 -1.246,0.275 -1.246,1.279 l 0,64.28 -21.35,0 c -1.016,0 -1.268,0.3 -1.268,1.198 l 0,1.77 c 0,0.981 0.252,1.28 1.268,1.28 l 47.207,0 C -0.314,1.28 0,0.981 0,0 z"
             style="fill:none;stroke:#656263;stroke-width:3;stroke-linecap:butt;stroke-linejoin:miter;stroke-miterlimit:10;stroke-opacity:1;stroke-dasharray:none"
             id="path82"
             inkscape:connector-curvature="0" /></g><g
           id="g84"
           transform="translate(1177.791,785.0684)"><path
             d="m 0,0 0,-67.248 c 0,-1.004 -0.299,-1.279 -1.268,-1.279 l -2.058,0 c -0.899,0 -1.194,0.275 -1.194,1.279 l 0,31.937 -41.56,0 0,-31.937 c 0,-1.004 -0.299,-1.279 -1.197,-1.279 l -2.045,0 c -0.981,0 -1.282,0.275 -1.282,1.279 l 0,67.248 c 0,0.981 0.301,1.28 1.282,1.28 l 2.045,0 c 0.898,0 1.197,-0.299 1.197,-1.28 l 0,-31.087 41.56,0 0,31.087 c 0,0.981 0.295,1.28 1.194,1.28 l 2.058,0 C -0.299,1.28 0,0.981 0,0"
             style="fill:#656263;fill-opacity:1;fill-rule:nonzero;stroke:none"
             id="path86"
             inkscape:connector-curvature="0" /></g><g
           id="g88"
           transform="translate(1177.791,785.0684)"><path
             d="m 0,0 0,-67.248 c 0,-1.004 -0.299,-1.279 -1.268,-1.279 l -2.058,0 c -0.899,0 -1.194,0.275 -1.194,1.279 l 0,31.937 -41.56,0 0,-31.937 c 0,-1.004 -0.299,-1.279 -1.197,-1.279 l -2.045,0 c -0.981,0 -1.282,0.275 -1.282,1.279 l 0,67.248 c 0,0.981 0.301,1.28 1.282,1.28 l 2.045,0 c 0.898,0 1.197,-0.299 1.197,-1.28 l 0,-31.087 41.56,0 0,31.087 c 0,0.981 0.295,1.28 1.194,1.28 l 2.058,0 C -0.299,1.28 0,0.981 0,0 z"
             style="fill:none;stroke:#656263;stroke-width:3;stroke-linecap:butt;stroke-linejoin:miter;stroke-miterlimit:10;stroke-opacity:1;stroke-dasharray:none"
             id="path90"
             inkscape:connector-curvature="0" /></g><g
           id="g92"
           transform="translate(653.8999,684.6924)"><path
             d="m 0,0 0,-7.82 -20.329,0 0,-56.788 -9.027,0 0,56.788 -20.321,0 0,7.82 L 0,0 z"
             style="fill:#f8b231;fill-opacity:1;fill-rule:nonzero;stroke:none"
             id="path94"
             inkscape:connector-curvature="0" /></g><g
           id="g96"
           transform="translate(688.3013,648.9619)"><path
             d="m 0,0 c 0.052,3.909 -0.924,7.129 -2.934,9.655 -2.03,2.528 -4.805,3.791 -8.351,3.791 -1.982,0 -3.741,-0.377 -5.252,-1.182 -1.538,-0.759 -2.827,-1.762 -3.871,-3.013 C -21.476,8 -22.295,6.591 -22.895,4.978 -23.471,3.358 -23.874,1.719 -24.056,0 L 0,0 z m -33.282,-4.718 c 0,4.274 0.625,8.034 1.876,11.196 1.227,3.204 2.887,5.899 4.927,7.987 2.058,2.135 4.419,3.721 7.089,4.768 2.658,1.043 5.411,1.589 8.209,1.589 6.514,0 11.518,-2.071 15.012,-6.111 C 7.298,10.62 9.043,4.43 9.043,-3.91 l 0,-1.421 c 0,-0.601 -0.026,-1.159 -0.103,-1.63 l -33.178,0 c 0.364,-5.054 1.825,-8.885 4.379,-11.491 2.553,-2.607 6.537,-3.909 11.936,-3.909 3.049,0 5.615,0.272 7.675,0.819 2.09,0.496 3.662,1.028 4.729,1.5 l 1.2,-7.245 c -1.043,-0.573 -2.906,-1.173 -5.538,-1.799 -2.657,-0.623 -5.642,-0.935 -9.003,-0.935 -4.223,0 -7.883,0.637 -10.955,1.913 -3.08,1.277 -5.596,3.061 -7.602,5.301 -1.98,2.242 -3.454,4.888 -4.417,7.939 -0.967,3.099 -1.448,6.449 -1.448,10.15"
             style="fill:#f8b231;fill-opacity:1;fill-rule:nonzero;stroke:none"
             id="path98"
             inkscape:connector-curvature="0" /></g><g
           id="g100"
           transform="translate(730.9121,618.9404)"><path
             d="m 0,0 c -3.909,0 -7.36,0.623 -10.307,1.874 -2.946,1.25 -5.447,3.007 -7.453,5.213 -2.009,2.241 -3.532,4.936 -4.522,7.988 -0.993,3.1 -1.51,6.476 -1.51,10.229 0,3.7 0.559,7.14 1.648,10.218 1.074,3.124 2.599,5.796 4.631,8.065 1.98,2.268 4.394,4.064 7.285,5.342 2.892,1.275 6.112,1.915 9.656,1.915 2.189,0 4.328,-0.206 6.516,-0.573 2.189,-0.364 4.249,-0.965 6.277,-1.796 l -2.002,-7.326 c -1.303,0.624 -2.778,1.095 -4.522,1.461 -1.695,0.365 -3.482,0.573 -5.409,0.573 -4.848,0 -8.589,-1.538 -11.166,-4.562 -2.582,-3.073 -3.872,-7.481 -3.872,-13.317 0,-2.608 0.299,-5.032 0.899,-7.219 0.598,-2.139 1.537,-4.016 2.814,-5.577 1.268,-1.564 2.905,-2.726 4.887,-3.584 1.98,-0.861 4.379,-1.264 7.246,-1.264 2.295,0 4.405,0.233 6.279,0.652 1.828,0.461 3.311,0.911 4.355,1.383 L 12.954,2.446 C 12.433,2.134 11.73,1.835 10.791,1.549 9.854,1.262 8.811,1.053 7.613,0.818 6.464,0.584 5.199,0.427 3.87,0.246 2.54,0.115 1.251,0 0,0"
             style="fill:#f8b231;fill-opacity:1;fill-rule:nonzero;stroke:none"
             id="path102"
             inkscape:connector-curvature="0" /></g><g
           id="g104"
           transform="translate(753.1953,620.084)"><path
             d="m 0,0 0,70.839 8.665,1.51 0,-24.81 c 1.63,0.623 3.337,1.082 5.173,1.468 1.812,0.34 3.65,0.487 5.424,0.487 3.857,0 7.062,-0.562 9.618,-1.63 2.553,-1.069 4.572,-2.607 6.111,-4.561 1.535,-1.954 2.593,-4.29 3.219,-7.05 0.622,-2.714 0.937,-5.759 0.937,-9.043 l 0,-27.21 -8.678,0 0,25.334 c 0,3.022 -0.221,5.569 -0.614,7.661 -0.392,2.136 -1.056,3.83 -1.993,5.134 -0.937,1.304 -2.189,2.254 -3.751,2.853 -1.515,0.55 -3.443,0.849 -5.785,0.849 -0.889,0 -1.855,-0.054 -2.845,-0.158 -1.04,-0.154 -1.943,-0.274 -2.852,-0.404 C 11.716,41.088 10.912,40.94 10.179,40.735 9.475,40.529 8.971,40.396 8.665,40.287 L 8.665,0 0,0 z"
             style="fill:#f8b231;fill-opacity:1;fill-rule:nonzero;stroke:none"
             id="path106"
             inkscape:connector-curvature="0" /></g><g
           id="g108"
           transform="translate(806.3906,667.1777)"><path
             d="m 0,0 c 2.018,0.472 4.662,1.018 7.948,1.54 3.283,0.572 7.087,0.86 11.364,0.86 3.856,0 7.061,-0.562 9.616,-1.629 2.552,-1.07 4.573,-2.608 6.111,-4.562 1.487,-1.954 2.593,-4.29 3.219,-7.05 0.609,-2.714 0.933,-5.759 0.933,-9.043 l 0,-27.21 -8.674,0 0,25.334 c 0,3.023 -0.221,5.57 -0.613,7.661 -0.392,2.136 -1.076,3.83 -1.994,5.134 -0.937,1.304 -2.189,2.254 -3.751,2.854 -1.564,0.549 -3.491,0.848 -5.785,0.848 -0.937,0 -1.903,-0.027 -2.894,-0.078 C 14.488,-5.396 13.538,-5.459 12.627,-5.588 11.764,-5.667 10.932,-5.759 10.228,-5.912 9.523,-6.021 8.991,-6.099 8.679,-6.153 l 0,-40.941 -8.679,0 L 0,0 z"
             style="fill:#f8b231;fill-opacity:1;fill-rule:nonzero;stroke:none"
             id="path110"
             inkscape:connector-curvature="0" /></g><g
           id="g112"
           transform="translate(893.6484,644.3232)"><path
             d="m 0,0 c 0,5.471 -1.238,9.785 -3.663,12.991 -2.477,3.206 -5.8,4.809 -10.022,4.809 -4.222,0 -7.594,-1.603 -10.022,-4.809 -2.474,-3.206 -3.662,-7.52 -3.662,-12.991 0,-5.475 1.188,-9.789 3.662,-12.994 2.428,-3.206 5.8,-4.808 10.022,-4.808 4.222,0 7.545,1.602 10.022,4.808 C -1.238,-9.789 0,-5.475 0,0 m 9.042,0 c 0,-3.859 -0.524,-7.35 -1.668,-10.427 -1.095,-3.127 -2.673,-5.786 -4.692,-8.027 -2.045,-2.24 -4.43,-3.948 -7.245,-5.174 -2.765,-1.224 -5.838,-1.835 -9.122,-1.835 -3.285,0 -6.357,0.611 -9.124,1.835 -2.811,1.226 -5.199,2.934 -7.254,5.174 -2.009,2.241 -3.584,4.9 -4.681,8.027 -1.145,3.077 -1.67,6.568 -1.67,10.427 0,3.803 0.525,7.232 1.67,10.385 1.097,3.152 2.672,5.825 4.681,8.067 2.055,2.24 4.443,3.949 7.254,5.173 2.767,1.224 5.839,1.836 9.124,1.836 3.284,0 6.357,-0.612 9.122,-1.836 2.815,-1.224 5.2,-2.933 7.245,-5.173 C 4.701,16.21 6.279,13.537 7.374,10.385 8.518,7.232 9.042,3.803 9.042,0"
             style="fill:#f8b231;fill-opacity:1;fill-rule:nonzero;stroke:none"
             id="path114"
             inkscape:connector-curvature="0" /></g><g
           id="g116"
           transform="translate(929.457,619.1465)"><path
             d="m 0,0 c -5.369,0.106 -9.125,1.276 -11.365,3.464 -2.24,2.14 -3.358,5.553 -3.358,10.141 l 0,58.171 8.649,1.51 0,-58.256 c 0,-1.452 0.153,-2.649 0.365,-3.54 0.261,-0.937 0.657,-1.717 1.225,-2.24 0.573,-0.571 1.303,-0.977 2.24,-1.264 0.939,-0.285 2.109,-0.532 3.465,-0.69 L 0,0 z"
             style="fill:#f8b231;fill-opacity:1;fill-rule:nonzero;stroke:none"
             id="path118"
             inkscape:connector-curvature="0" /></g><g
           id="g120"
           transform="translate(974.1016,644.3232)"><path
             d="m 0,0 c 0,5.471 -1.238,9.785 -3.663,12.991 -2.476,3.206 -5.799,4.809 -10.022,4.809 -4.222,0 -7.595,-1.603 -10.021,-4.809 -2.475,-3.206 -3.711,-7.52 -3.711,-12.991 0,-5.475 1.236,-9.789 3.711,-12.994 2.426,-3.206 5.799,-4.808 10.021,-4.808 4.223,0 7.546,1.602 10.022,4.808 C -1.238,-9.789 0,-5.475 0,0 m 9.042,0 c 0,-3.859 -0.571,-7.35 -1.667,-10.427 -1.145,-3.127 -2.674,-5.786 -4.729,-8.027 -2.009,-2.24 -4.394,-3.948 -7.209,-5.174 -2.813,-1.224 -5.838,-1.835 -9.122,-1.835 -3.286,0 -6.358,0.611 -9.135,1.835 -2.801,1.226 -5.237,2.934 -7.244,5.174 -2.007,2.241 -3.583,4.9 -4.679,8.027 -1.147,3.077 -1.718,6.568 -1.718,10.427 0,3.803 0.571,7.232 1.718,10.385 1.096,3.152 2.672,5.825 4.679,8.067 2.007,2.24 4.443,3.949 7.244,5.173 2.777,1.224 5.849,1.836 9.135,1.836 3.284,0 6.309,-0.612 9.122,-1.836 2.815,-1.224 5.2,-2.933 7.209,-5.173 C 4.701,16.21 6.23,13.537 7.375,10.385 8.471,7.232 9.042,3.803 9.042,0"
             style="fill:#f8b231;fill-opacity:1;fill-rule:nonzero;stroke:none"
             id="path122"
             inkscape:connector-curvature="0" /></g><g
           id="g124"
           transform="translate(1025.6758,660.8994)"><path
             d="m 0,0 c -0.889,0.257 -2.071,0.506 -3.506,0.69 -1.483,0.234 -3.452,0.326 -5.904,0.326 -4.689,0 -8.273,-1.489 -10.801,-4.561 -2.527,-3.025 -3.754,-7.09 -3.754,-12.096 0,-2.812 0.365,-5.186 1.069,-7.166 0.704,-2.03 1.668,-3.673 2.892,-4.976 1.225,-1.304 2.608,-2.269 4.196,-2.893 1.59,-0.626 3.219,-0.937 4.889,-0.937 2.293,0 4.427,0.373 6.343,1.025 1.894,0.652 3.43,1.394 4.576,2.28 L 0,0 z m 0.078,-35.968 c -0.73,-0.52 -2.201,-1.159 -4.314,-1.917 -2.163,-0.756 -4.677,-1.182 -7.542,-1.182 -2.921,0 -5.646,0.492 -8.226,1.43 -2.579,0.939 -4.835,2.361 -6.763,4.316 -1.927,1.956 -3.464,4.416 -4.56,7.336 -1.145,2.917 -1.669,6.408 -1.669,10.424 0,3.544 0.496,6.789 1.548,9.735 1.085,2.945 2.624,5.5 4.641,7.662 2.009,2.113 4.497,3.83 7.415,5.006 2.919,1.223 6.204,1.837 9.855,1.837 4.063,0 7.594,-0.302 10.594,-0.901 C 4.053,7.18 6.594,6.671 8.66,6.149 l 0,-43.227 c 0,-7.488 -1.912,-12.86 -5.767,-16.246 -3.86,-3.338 -9.695,-5.007 -17.564,-5.007 -3.024,0 -5.905,0.212 -8.59,0.732 -2.733,0.52 -5.069,1.07 -7.05,1.796 l 1.59,7.533 c 1.721,-0.676 3.869,-1.29 6.398,-1.835 2.478,-0.497 5.132,-0.77 7.858,-0.77 5.16,0 8.85,1.015 11.117,3.05 2.268,2.083 3.426,5.342 3.426,9.822 l 0,2.035 z"
             style="fill:#f8b231;fill-opacity:1;fill-rule:nonzero;stroke:none"
             id="path126"
             inkscape:connector-curvature="0" /></g><g
           id="g128"
           transform="translate(1043.5547,611.0391)"><path
             d="m 0,0 c 0.678,-0.311 1.576,-0.61 2.645,-0.896 1.117,-0.287 2.173,-0.407 3.218,-0.407 3.44,0 6.098,0.744 8.026,2.282 1.927,1.539 3.652,3.977 5.215,7.414 -3.911,7.454 -7.547,15.339 -10.959,23.706 -3.366,8.364 -6.19,16.824 -8.432,25.421 l 9.33,0 c 0.678,-2.813 1.523,-5.812 2.486,-9.042 0.965,-3.234 2.024,-6.545 3.221,-9.983 1.148,-3.439 2.426,-6.83 3.791,-10.266 1.393,-3.392 2.805,-6.676 4.313,-9.854 2.347,6.516 4.38,12.979 6.152,19.39 1.721,6.411 3.363,12.978 4.928,19.755 l 8.962,0 C 40.654,48.397 38.154,39.579 35.441,31.16 32.682,22.741 29.736,14.884 26.559,7.533 25.307,4.77 24.018,2.335 22.688,0.326 21.357,-1.68 19.908,-3.336 18.285,-4.64 16.678,-5.942 14.842,-6.908 12.834,-7.532 10.791,-8.156 8.496,-8.471 5.943,-8.471 c -0.679,0 -1.38,0.04 -2.113,0.12 -0.73,0.08 -1.498,0.235 -2.203,0.364 -0.705,0.182 -1.356,0.327 -1.953,0.535 -0.6,0.193 -1.006,0.339 -1.264,0.444 L 0,0 z"
             style="fill:#f8b231;fill-opacity:1;fill-rule:nonzero;stroke:none"
             id="path130"
             inkscape:connector-curvature="0" /></g><g
           id="g132"
           transform="translate(540.5635,708.6719)"><path
             d="m 0,0 c 0,-83.118 -67.386,-150.529 -150.505,-150.529 -83.139,0 -150.527,67.411 -150.527,150.529 0,83.116 67.388,150.503 150.527,150.503 C -67.386,150.503 0,83.116 0,0"
             style="fill:#f8b231;fill-opacity:1;fill-rule:nonzero;stroke:none"
             id="path134"
             inkscape:connector-curvature="0" /></g><g
           id="g136"
           transform="translate(369.8828,725.4712)"><path
             d="m 0,0 0,7.481 c 0,7.456 -1.911,14.897 -5.513,19.786 -5.135,6.655 -13.271,10.611 -21.475,10.611 l -31.224,0 c -1.6,4.14 -5.604,7.07 -10.295,7.07 -6.1,0 -11.026,-4.926 -11.026,-11.026 0,-6.1 4.926,-11.026 11.026,-11.026 4.692,0 8.695,2.93 10.295,7.046 l 16.576,0 0,-14.296 c -4.115,-1.599 -7.051,-5.602 -7.051,-10.293 0,-6.1 4.932,-11.026 11.031,-11.026 6.08,0 11.027,4.926 11.027,11.026 0,4.691 -2.929,8.694 -7.071,10.293 l -10e-4,14.296 7.531,0 c 5.074,-0.218 9.658,-2.574 13.473,-6.918 2.847,-3.315 4.345,-7.646 4.65,-13.328 L -7.936,0 c -4.139,-1.598 -7.069,-5.601 -7.069,-10.292 0,-6.076 4.947,-11.027 11.026,-11.027 6.099,0 11.038,4.951 11.038,11.027 C 7.059,-5.601 4.116,-1.597 0,0"
             style="fill:#656263;fill-opacity:1;fill-rule:nonzero;stroke:none"
             id="path138"
             inkscape:connector-curvature="0" /></g><g
           id="g140"
           transform="translate(430.4487,628.8271)"><path
             d="m 0,0 c -4.694,0 -8.689,-2.93 -10.287,-7.069 l -32.044,0 c -5.098,0.241 -9.657,2.574 -13.497,6.942 -3.134,3.674 -4.661,8.58 -4.699,15.252 l -0.039,7.771 c 4.116,1.598 7.059,5.578 7.059,10.293 0,6.051 -4.938,11.027 -11.038,11.027 -6.079,0 -11.026,-4.976 -11.026,-11.027 0,-4.715 2.93,-8.695 7.071,-10.293 l 0,-7.48 c 0,-7.456 1.887,-14.899 5.512,-19.775 5.131,-6.665 13.271,-10.623 21.476,-10.623 l 31.225,0 c 1.598,-4.14 5.593,-7.069 10.287,-7.069 6.082,0 11.031,4.925 11.031,11.026 C 11.031,-4.925 6.082,0 0,0"
             style="fill:#656263;fill-opacity:1;fill-rule:nonzero;stroke:none"
             id="path142"
             inkscape:connector-curvature="0" /></g><g
           id="g144"
           transform="translate(458.2065,661.6143)"><path
             d="m 0,0 c -7.54,0 -13.843,-5.346 -15.282,-12.477 l -30.627,-0.002 0,-0.009 c -5.259,0.084 -10.007,2.423 -13.946,6.905 -3.197,3.768 -4.704,8.743 -4.704,15.542 l -0.032,0 0,0.638 12.369,0 c 1.598,-4.14 5.602,-7.071 10.294,-7.071 6.101,0 11.025,4.974 11.025,11.074 0,4.668 -2.93,8.646 -7.071,10.246 l 0,35.172 14.323,0 c 1.597,-4.115 5.599,-7.052 10.292,-7.052 6.076,0 11.026,4.931 11.026,11.032 0,6.076 -4.95,11.026 -11.026,11.026 -4.693,0 -8.694,-2.93 -10.292,-7.07 l -14.323,0 0,6.462 c 0,5.428 2.354,10.502 6.922,14.541 3.742,3.197 8.996,4.761 15.796,4.761 l 7.249,0 c 1.599,-4.14 5.578,-7.071 10.268,-7.071 6.101,0 11.052,4.951 11.052,11.026 0,6.1 -4.951,11.05 -11.052,11.05 -4.69,0 -8.669,-2.953 -10.268,-7.07 l -7.505,0 c -7.456,0 -14.897,-1.911 -19.762,-5.512 -6.599,-5.095 -10.541,-13.359 -10.63,-21.476 l -0.005,0 0,-49.815 c -2.895,-1.097 -5.193,-3.396 -6.313,-6.294 l -12.369,0 0,90.179 c 6.683,1.738 11.636,7.822 11.636,15.07 0,8.613 -7.006,15.612 -15.618,15.612 -8.611,0 -15.613,-6.999 -15.613,-15.612 0,-7.248 4.952,-13.332 11.642,-15.071 l 0,-77.817 -53.598,0 c -1.762,6.707 -7.846,11.638 -15.093,11.638 -8.615,0 -15.596,-7.006 -15.596,-15.594 0,-8.635 6.981,-15.592 15.596,-15.592 7.247,0 13.331,4.93 15.093,11.637 l 53.598,0.002 0,-13.683 0.024,0 c 0.089,-7.225 1.99,-14.379 5.505,-19.128 5.049,-6.549 13.026,-10.484 21.106,-10.627 l 0,-0.008 31.096,0 c 2.024,-6.231 7.897,-10.75 14.813,-10.75 8.636,0 15.619,7.008 15.619,15.593 C 15.619,-6.959 8.636,0 0,0"
             style="fill:#ffffff;fill-opacity:1;fill-rule:nonzero;stroke:none"
             id="path146"
             inkscape:connector-curvature="0" /></g></g></g></g></svg>