<?xml version="1.0" encoding="UTF-8" standalone="no"?>
<!-- Created with Inkscape (http://www.inkscape.org/) -->

<svg
   version="1.1"
   id="svg1"
   width="791.46936"
   height="766.88635"
   viewBox="0 0 791.46932 766.88632"
   sodipodi:docname="seaslug.eps"
   inkscape:version="0.0"
   xmlns:inkscape="http://www.inkscape.org/namespaces/inkscape"
   xmlns:sodipodi="http://sodipodi.sourceforge.net/DTD/sodipodi-0.dtd"
   xmlns="http://www.w3.org/2000/svg"
   xmlns:svg="http://www.w3.org/2000/svg">
  <defs
     id="defs1">
    <linearGradient
       x1="0"
       y1="0"
       x2="1"
       y2="0"
       gradientUnits="userSpaceOnUse"
       gradientTransform="matrix(709.642,1133.81,1133.81,-709.642,3298.69,2879.49)"
       spreadMethod="pad"
       id="linearGradient4">
      <stop
         style="stop-opacity:1;stop-color:#eb038d"
         offset="0"
         id="stop3" />
      <stop
         style="stop-opacity:1;stop-color:#f5f014"
         offset="1"
         id="stop4" />
    </linearGradient>
    <clipPath
       clipPathUnits="userSpaceOnUse"
       id="clipPath4">
      <path
         d="m 5099.29,2108.14 c -127.49,0 -259.85,12.7 -391.27,38.99 -189.95,38.01 -358.8,101.28 -488.29,183 -447.44,282.35 -717.13,378.2 -1189.55,498.49 -467.7,119.09 -880.7,422.97 -1194.34,878.8 -131.84,191.61 -192.8,433.97 -218.77,653.8 156.04,-92.28 320.04,-134.72 476.36,-165.99 44.33,-8.86 89.18,-17.02 132.54,-24.91 42.54,-7.73 86.52,-15.72 129.19,-24.25 277.5,-55.52 483.74,-134.54 654.17,-356.64 250,-325.78 472.21,-408.25 675.1,-448.82 63.02,-12.62 124.66,-20.92 189.93,-29.75 64.85,-8.77 131.94,-17.81 200.09,-31.46 30.19,-6.04 58.25,-12.48 85.77,-19.68 413.41,-108.31 563.33,-253.28 743.01,-537.27 89.86,-142.03 225.65,-232.09 403.56,-267.67 56.58,-11.32 117.69,-16.95 182.42,-16.95 118.53,0 249.18,18.88 386.13,56.23 60.6,16.53 121.2,27.89 179.67,35.45 -43.27,-67.09 -104.57,-135.56 -180.68,-199.49 -170.71,-143.39 -458.01,-221.88 -775.04,-221.88"
         transform="translate(0,2.5000001e-4)"
         id="path4" />
    </clipPath>
    <radialGradient
       fx="0"
       fy="0"
       cx="0"
       cy="0"
       r="1"
       gradientUnits="userSpaceOnUse"
       gradientTransform="matrix(-3457.89,713.132,713.132,3457.89,5627.73,4320.54)"
       spreadMethod="pad"
       id="radialGradient7">
      <stop
         style="stop-opacity:1;stop-color:#ea068a"
         offset="0"
         id="stop6" />
      <stop
         style="stop-opacity:1;stop-color:#582790"
         offset="1"
         id="stop7" />
    </radialGradient>
    <clipPath
       clipPathUnits="userSpaceOnUse"
       id="clipPath7">
      <path
         d="m 5489.42,2522.59 c -59.1,0 -114.71,5.09 -165.98,15.35 -154.29,30.87 -271.54,108.19 -348.54,229.86 -212.81,336.37 -398.13,470.47 -793.17,573.97 -29.15,7.62 -58.8,14.44 -90.63,20.81 -70.81,14.16 -139.23,23.4 -205.4,32.33 -63.88,8.65 -124.24,16.79 -184.64,28.87 -186.66,37.33 -391.49,113.74 -624.45,417.3 -206.75,269.42 -472.22,341.63 -704.83,388.16 -43.39,8.68 -87.74,16.73 -130.64,24.54 -43.01,7.8 -87.47,15.89 -131.07,24.62 -179.3,35.87 -368.71,86.81 -539.09,215.66 -385.63,291.64 -376.81,843.52 -363.43,1017.3 27.96,-9.52 57.58,-17.39 89.4,-23.75 71.81,-14.37 151.1,-20.07 238.61,-20.06 142.91,0 307.67,15.21 497.09,32.69 261.31,24.12 575.85,53.15 952.12,53.15 306.29,0 653.48,-19.24 1046.13,-76.03 78.08,-11.29 155.38,-24.55 229.74,-39.44 1581.21,-316.29 1883.99,-1340.41 1940.77,-1766.05 71.99,-539.65 198.45,-907.95 255.04,-1053.67 -46.41,4.95 -111.78,9.82 -189.01,9.82 -118.77,0 -265.56,-11.54 -414.41,-52.13 -129.83,-35.41 -252.85,-53.3 -363.61,-53.3 m 417.53,542.6 c -88.51,0 -154.11,-23.72 -162.3,-64.65 -11.51,-57.53 94.74,-127.29 237.31,-155.8 41.14,-8.23 80.79,-12.13 116.69,-12.13 88.52,0 154.12,23.72 162.31,64.65 11.5,57.53 -94.75,127.29 -237.31,155.8 -41.14,8.23 -80.8,12.13 -116.7,12.13 M 4893.19,3491.4 c -106.44,0 -188.77,-35.58 -200.46,-94.07 -15.37,-76.7 96.58,-163.76 249.97,-194.43 36.46,-7.29 71.96,-10.75 105.13,-10.75 106.42,0 188.73,35.58 200.43,94.05 15.34,76.69 -96.6,163.76 -250,194.46 -36.43,7.29 -71.91,10.74 -105.07,10.74 m -1301.64,489.79 c -65.65,0 -113.07,-17.15 -125.78,-51.1 -24.46,-65.3 88.69,-168.04 252.72,-229.46 78.76,-29.48 154.9,-44.09 215.51,-44.09 65.64,0 113.06,17.15 125.77,51.09 24.46,65.31 -88.69,168.02 -252.73,229.46 -78.74,29.49 -154.88,44.1 -215.49,44.1 m 1031.25,335.76 c -95.52,0 -176.72,-36.37 -215.05,-106.16 -66.7,-121.49 21.81,-298.27 197.73,-394.83 74.85,-41.1 153.44,-61.05 224.2,-61.05 95.52,0 176.74,36.37 215.07,106.16 66.7,121.5 -21.84,298.26 -197.73,394.83 -74.85,41.1 -153.46,61.05 -224.22,61.05 m -1881.79,338.63 c -128.93,0 -230.07,-46.49 -245.12,-121.71 -19.34,-96.69 110.97,-204.31 291.05,-240.33 40.05,-8.01 79.15,-11.8 116.01,-11.8 128.92,0 230.06,46.48 245.11,121.67 19.34,96.73 -110.97,204.34 -291.05,240.36 -40.04,8.01 -79.15,11.81 -116,11.81 m 836.98,286.33 c -135.18,0 -246.78,-52.58 -286.68,-148.63 -61.98,-149.2 72.38,-346.82 300.08,-441.41 81.1,-33.69 163.08,-49.76 237.86,-49.76 135.19,0 246.78,52.56 286.68,148.63 61.97,149.19 -72.38,346.8 -300.1,441.41 -81.1,33.69 -163.06,49.76 -237.84,49.76 M 4733.9,5106.7 c -60.38,0 -102.42,-14.38 -115.41,-44.14 -31.97,-73.26 124.06,-212.04 348.53,-309.96 133.25,-58.14 260.63,-88.8 348.86,-88.8 60.38,0 102.42,14.37 115.41,44.14 31.96,73.25 -124.07,212.03 -348.54,309.96 -133.25,58.13 -260.63,88.8 -348.85,88.8 m -2850,218.08 c -118.4,0 -212.28,-45.22 -226.76,-117.55 -18.34,-91.73 97.9,-192.3 259.66,-224.66 34.18,-6.83 67.63,-10.08 99.34,-10.08 118.38,0 212.28,45.23 226.75,117.57 18.34,91.71 -97.9,192.27 -259.65,224.64 -34.17,6.84 -67.63,10.08 -99.34,10.08 m 754.82,3.3 c -45.04,0 -75.76,-9.69 -82.17,-29.28 -13.48,-41.21 85.65,-110.64 221.4,-155.07 71.21,-23.31 138.35,-35.1 188.05,-35.1 45.06,0 75.78,9.69 82.19,29.29 13.49,41.21 -85.64,110.63 -221.4,155.06 -71.22,23.3 -138.37,35.1 -188.07,35.1 m 1392.8,32.02 c -89.44,0 -157.47,-27.38 -166.64,-73.24 -12.34,-61.7 86.47,-133.49 220.69,-160.33 34.45,-6.89 67.88,-10.15 98.76,-10.15 89.45,0 157.48,27.37 166.65,73.23 12.35,61.7 -86.49,133.49 -220.72,160.34 -34.45,6.89 -67.86,10.15 -98.74,10.15"
         transform="translate(0,2.5000001e-4)"
         id="path7" />
    </clipPath>
    <radialGradient
       fx="0"
       fy="0"
       cx="0"
       cy="0"
       r="1"
       gradientUnits="userSpaceOnUse"
       gradientTransform="matrix(-3457.89,713.132,713.132,3457.89,5627.73,4320.54)"
       spreadMethod="pad"
       id="radialGradient12">
      <stop
         style="stop-opacity:1;stop-color:#ba38a3"
         offset="0"
         id="stop11" />
      <stop
         style="stop-opacity:1;stop-color:#9352af"
         offset="1"
         id="stop12" />
    </radialGradient>
    <clipPath
       clipPathUnits="userSpaceOnUse"
       id="clipPath12">
      <path
         d="m 2016.14,4972.49 c -31.71,0 -65.16,3.25 -99.34,10.08 -161.76,32.36 -278,132.93 -259.66,224.66 14.48,72.33 108.36,117.55 226.76,117.55 31.71,0 65.17,-3.24 99.34,-10.08 161.75,-32.37 277.99,-132.93 259.65,-224.64 -14.47,-72.34 -108.37,-117.57 -226.75,-117.57"
         transform="translate(0,2.5000001e-4)"
         id="path12" />
    </clipPath>
    <radialGradient
       fx="0"
       fy="0"
       cx="0"
       cy="0"
       r="1"
       gradientUnits="userSpaceOnUse"
       gradientTransform="matrix(-3457.89,713.132,713.132,3457.89,5627.73,4320.54)"
       spreadMethod="pad"
       id="radialGradient14">
      <stop
         style="stop-opacity:1;stop-color:#ba38a3"
         offset="0"
         id="stop13" />
      <stop
         style="stop-opacity:1;stop-color:#9352af"
         offset="1"
         id="stop14" />
    </radialGradient>
    <clipPath
       clipPathUnits="userSpaceOnUse"
       id="clipPath14">
      <path
         d="m 2902.95,4281.74 c -36.86,0 -75.96,3.79 -116.01,11.8 -180.08,36.02 -310.39,143.64 -291.05,240.33 15.05,75.22 116.19,121.71 245.12,121.71 36.85,0 75.96,-3.8 116,-11.81 180.08,-36.02 310.39,-143.63 291.05,-240.36 -15.05,-75.19 -116.19,-121.67 -245.11,-121.67"
         transform="translate(0,2.5000001e-4)"
         id="path14" />
    </clipPath>
    <radialGradient
       fx="0"
       fy="0"
       cx="0"
       cy="0"
       r="1"
       gradientUnits="userSpaceOnUse"
       gradientTransform="matrix(-3457.89,713.132,713.132,3457.89,5627.73,4320.54)"
       spreadMethod="pad"
       id="radialGradient16">
      <stop
         style="stop-opacity:1;stop-color:#ba38a3"
         offset="0"
         id="stop15" />
      <stop
         style="stop-opacity:1;stop-color:#9352af"
         offset="1"
         id="stop16" />
    </radialGradient>
    <clipPath
       clipPathUnits="userSpaceOnUse"
       id="clipPath16">
      <path
         d="m 3829.25,4302.11 c -74.78,0 -156.76,16.07 -237.86,49.76 -227.7,94.59 -362.06,292.21 -300.08,441.41 39.9,96.05 151.5,148.63 286.68,148.63 74.78,0 156.74,-16.07 237.84,-49.76 227.72,-94.61 362.07,-292.22 300.1,-441.41 -39.9,-96.07 -151.49,-148.63 -286.68,-148.63"
         transform="translate(0,2.5000001e-4)"
         id="path16" />
    </clipPath>
    <radialGradient
       fx="0"
       fy="0"
       cx="0"
       cy="0"
       r="1"
       gradientUnits="userSpaceOnUse"
       gradientTransform="matrix(-3457.89,713.132,713.132,3457.89,5627.73,4320.54)"
       spreadMethod="pad"
       id="radialGradient18">
      <stop
         style="stop-opacity:1;stop-color:#ba38a3"
         offset="0"
         id="stop17" />
      <stop
         style="stop-opacity:1;stop-color:#9352af"
         offset="1"
         id="stop18" />
    </radialGradient>
    <clipPath
       clipPathUnits="userSpaceOnUse"
       id="clipPath18">
      <path
         d="m 5315.88,4663.8 c -88.23,0 -215.61,30.66 -348.86,88.8 -224.47,97.92 -380.5,236.7 -348.53,309.96 12.99,29.76 55.03,44.14 115.41,44.14 88.22,0 215.6,-30.67 348.85,-88.8 224.47,-97.93 380.5,-236.71 348.54,-309.96 -12.99,-29.77 -55.03,-44.14 -115.41,-44.14"
         transform="translate(0,2.5000001e-4)"
         id="path18" />
    </clipPath>
    <radialGradient
       fx="0"
       fy="0"
       cx="0"
       cy="0"
       r="1"
       gradientUnits="userSpaceOnUse"
       gradientTransform="matrix(-3457.89,713.132,713.132,3457.89,5627.73,4320.54)"
       spreadMethod="pad"
       id="radialGradient20">
      <stop
         style="stop-opacity:1;stop-color:#ba38a3"
         offset="0"
         id="stop19" />
      <stop
         style="stop-opacity:1;stop-color:#9352af"
         offset="1"
         id="stop20" />
    </radialGradient>
    <clipPath
       clipPathUnits="userSpaceOnUse"
       id="clipPath20">
      <path
         d="m 4184.33,5116.38 c -30.88,0 -64.31,3.26 -98.76,10.15 -134.22,26.84 -233.03,98.63 -220.69,160.33 9.17,45.86 77.2,73.24 166.64,73.24 30.88,0 64.29,-3.26 98.74,-10.15 134.23,-26.85 233.07,-98.64 220.72,-160.34 -9.17,-45.86 -77.2,-73.23 -166.65,-73.23"
         transform="translate(0,2.5000001e-4)"
         id="path20" />
    </clipPath>
    <radialGradient
       fx="0"
       fy="0"
       cx="0"
       cy="0"
       r="1"
       gradientUnits="userSpaceOnUse"
       gradientTransform="matrix(-3457.89,713.132,713.132,3457.89,5627.73,4320.54)"
       spreadMethod="pad"
       id="radialGradient22">
      <stop
         style="stop-opacity:1;stop-color:#ba38a3"
         offset="0"
         id="stop21" />
      <stop
         style="stop-opacity:1;stop-color:#9352af"
         offset="1"
         id="stop22" />
    </radialGradient>
    <clipPath
       clipPathUnits="userSpaceOnUse"
       id="clipPath22">
      <path
         d="m 4829.68,3754.91 c -70.76,0 -149.35,19.95 -224.2,61.05 -175.92,96.56 -264.43,273.34 -197.73,394.83 38.33,69.79 119.53,106.16 215.05,106.16 70.76,0 149.37,-19.95 224.22,-61.05 175.89,-96.57 264.43,-273.33 197.73,-394.83 -38.33,-69.79 -119.55,-106.16 -215.07,-106.16"
         transform="translate(0,2.5000001e-4)"
         id="path22" />
    </clipPath>
    <radialGradient
       fx="0"
       fy="0"
       cx="0"
       cy="0"
       r="1"
       gradientUnits="userSpaceOnUse"
       gradientTransform="matrix(-3457.89,713.132,713.132,3457.89,5627.73,4320.54)"
       spreadMethod="pad"
       id="radialGradient24">
      <stop
         style="stop-opacity:1;stop-color:#ba38a3"
         offset="0"
         id="stop23" />
      <stop
         style="stop-opacity:1;stop-color:#9352af"
         offset="1"
         id="stop24" />
    </radialGradient>
    <clipPath
       clipPathUnits="userSpaceOnUse"
       id="clipPath24">
      <path
         d="m 3934,3656.54 c -60.61,0 -136.75,14.61 -215.51,44.09 -164.03,61.42 -277.18,164.16 -252.72,229.46 12.71,33.95 60.13,51.1 125.78,51.1 60.61,0 136.75,-14.61 215.49,-44.1 164.04,-61.44 277.19,-164.15 252.73,-229.46 -12.71,-33.94 -60.13,-51.09 -125.77,-51.09"
         transform="translate(0,2.5000001e-4)"
         id="path24" />
    </clipPath>
    <radialGradient
       fx="0"
       fy="0"
       cx="0"
       cy="0"
       r="1"
       gradientUnits="userSpaceOnUse"
       gradientTransform="matrix(-3457.89,713.132,713.132,3457.89,5627.73,4320.54)"
       spreadMethod="pad"
       id="radialGradient26">
      <stop
         style="stop-opacity:1;stop-color:#ba38a3"
         offset="0"
         id="stop25" />
      <stop
         style="stop-opacity:1;stop-color:#9352af"
         offset="1"
         id="stop26" />
    </radialGradient>
    <clipPath
       clipPathUnits="userSpaceOnUse"
       id="clipPath26">
      <path
         d="m 5047.83,3192.15 c -33.17,0 -68.67,3.46 -105.13,10.75 -153.39,30.67 -265.34,117.73 -249.97,194.43 11.69,58.49 94.02,94.07 200.46,94.07 33.16,0 68.64,-3.45 105.07,-10.74 153.4,-30.7 265.34,-117.77 250,-194.46 -11.7,-58.47 -94.01,-94.05 -200.43,-94.05"
         transform="translate(0,2.5000001e-4)"
         id="path26" />
    </clipPath>
    <radialGradient
       fx="0"
       fy="0"
       cx="0"
       cy="0"
       r="1"
       gradientUnits="userSpaceOnUse"
       gradientTransform="matrix(-3457.89,713.132,713.132,3457.89,5627.73,4320.54)"
       spreadMethod="pad"
       id="radialGradient28">
      <stop
         style="stop-opacity:1;stop-color:#ba38a3"
         offset="0"
         id="stop27" />
      <stop
         style="stop-opacity:1;stop-color:#9352af"
         offset="1"
         id="stop28" />
    </radialGradient>
    <clipPath
       clipPathUnits="userSpaceOnUse"
       id="clipPath28">
      <path
         d="m 2966,5108.63 c -49.7,0 -116.84,11.79 -188.05,35.1 -135.75,44.43 -234.88,113.86 -221.4,155.07 6.41,19.59 37.13,29.28 82.17,29.28 49.7,0 116.85,-11.8 188.07,-35.1 135.76,-44.43 234.89,-113.85 221.4,-155.06 -6.41,-19.6 -37.13,-29.29 -82.19,-29.29"
         transform="translate(0,2.5000001e-4)"
         id="path28" />
    </clipPath>
    <radialGradient
       fx="0"
       fy="0"
       cx="0"
       cy="0"
       r="1"
       gradientUnits="userSpaceOnUse"
       gradientTransform="matrix(-3457.89,713.132,713.132,3457.89,5627.73,4320.54)"
       spreadMethod="pad"
       id="radialGradient30">
      <stop
         style="stop-opacity:1;stop-color:#ba38a3"
         offset="0"
         id="stop29" />
      <stop
         style="stop-opacity:1;stop-color:#9352af"
         offset="1"
         id="stop30" />
    </radialGradient>
    <clipPath
       clipPathUnits="userSpaceOnUse"
       id="clipPath30">
      <path
         d="m 6098.65,2832.61 c -35.9,0 -75.55,3.9 -116.69,12.13 -142.57,28.51 -248.82,98.27 -237.31,155.8 8.19,40.93 73.79,64.65 162.3,64.65 35.9,0 75.56,-3.9 116.7,-12.13 142.56,-28.51 248.81,-98.27 237.31,-155.8 -8.19,-40.93 -73.79,-64.65 -162.31,-64.65"
         transform="translate(0,2.5000001e-4)"
         id="path30" />
    </clipPath>
    <linearGradient
       x1="0"
       y1="0"
       x2="1"
       y2="0"
       gradientUnits="userSpaceOnUse"
       gradientTransform="matrix(149.729,-1035.48,-1035.48,-149.729,3266.06,6152.94)"
       spreadMethod="pad"
       id="linearGradient44">
      <stop
         style="stop-opacity:1;stop-color:#eb038d"
         offset="0"
         id="stop43" />
      <stop
         style="stop-opacity:1;stop-color:#f5f014"
         offset="1"
         id="stop44" />
    </linearGradient>
    <clipPath
       clipPathUnits="userSpaceOnUse"
       id="clipPath44">
      <path
         d="m 3372.72,5275.41 c 161.26,11.11 314.02,31.39 396.16,316.41 82.13,285.02 88.17,566.42 298.32,675.11 210.16,108.69 169.09,154.58 9.67,142.51 -159.42,-12.08 -371.98,-164.24 -396.14,-347.81 -24.17,-183.58 -135.27,171.49 76.09,349.03 211.37,177.52 329.71,235.49 340.6,384.04 0,0 -38.65,-99.03 -268.12,-147.33 -229.47,-48.31 -492.78,-297.09 -440.85,-571.24 0,0 -77.28,210.15 7.26,413.04 84.55,202.89 146.16,322.44 -135.24,485.51 0,0 106.27,-253.64 -68.85,-438.41 -175.14,-184.78 -141.32,-361.09 -102.68,-513.27 0,0 -13.28,247.57 -229.46,297.1 -216.19,49.53 -194.44,221.02 -176.32,343 0,0 -233.1,-286.22 -77.31,-449.26 155.79,-163.06 317.63,-170.3 317.62,-327.32 0,0 -118.34,161.84 -281.39,100.25 -163.05,-61.58 -328.5,84.55 -357.49,190.83 0,0 88.15,-469.8 328.49,-524.15 240.34,-54.36 187.2,-68.87 339.37,-218.62 152.16,-149.76 280.18,-169.08 420.27,-159.42 z"
         transform="translate(0,2.5000001e-4)"
         id="path44" />
    </clipPath>
  </defs>
  <sodipodi:namedview
     id="namedview1"
     pagecolor="#ffffff"
     bordercolor="#000000"
     borderopacity="0.25"
     inkscape:showpageshadow="2"
     inkscape:pageopacity="0.0"
     inkscape:pagecheckerboard="0"
     inkscape:deskcolor="#d1d1d1"
     inkscape:zoom="0.74906241"
     inkscape:cx="534.0009"
     inkscape:cy="541.34341"
     inkscape:window-width="1920"
     inkscape:window-height="1008"
     inkscape:window-x="1080"
     inkscape:window-y="0"
     inkscape:window-maximized="1"
     inkscape:current-layer="group-R5">
    <inkscape:page
       x="0"
       y="0"
       width="791.4693"
       height="766.88629"
       id="page2"
       margin="0"
       bleed="0" />
  </sodipodi:namedview>
  <g
     id="g1"
     inkscape:groupmode="layer"
     inkscape:label="1"
     transform="translate(-19.517457,-26.214862)">
    <g
       id="group-R5"
       transform="translate(-385.81565,164.20528)">
      <path
         id="path3"
         d="m 5099.29,2108.14 c -127.49,0 -259.85,12.7 -391.27,38.99 -189.95,38.01 -358.8,101.28 -488.29,183 -447.44,282.35 -717.13,378.2 -1189.55,498.49 -467.7,119.09 -880.7,422.97 -1194.34,878.8 -131.84,191.61 -192.8,433.97 -218.77,653.8 156.04,-92.28 320.04,-134.72 476.36,-165.99 44.33,-8.86 89.18,-17.02 132.54,-24.91 42.54,-7.73 86.52,-15.72 129.19,-24.25 277.5,-55.52 483.74,-134.54 654.17,-356.64 250,-325.78 472.21,-408.25 675.1,-448.82 63.02,-12.62 124.66,-20.92 189.93,-29.75 64.85,-8.77 131.94,-17.81 200.09,-31.46 30.19,-6.04 58.25,-12.48 85.77,-19.68 413.41,-108.31 563.33,-253.28 743.01,-537.27 89.86,-142.03 225.65,-232.09 403.56,-267.67 56.58,-11.32 117.69,-16.95 182.42,-16.95 118.53,0 249.18,18.88 386.13,56.23 60.6,16.53 121.2,27.89 179.67,35.45 -43.27,-67.09 -104.57,-135.56 -180.68,-199.49 -170.71,-143.39 -458.01,-221.88 -775.04,-221.88"
         style="fill:url(#linearGradient4);fill-opacity:1;fill-rule:nonzero;stroke:none"
         transform="matrix(0.13333333,0,0,-0.13333333,256.32043,795.66124)"
         clip-path="url(#clipPath4)" />
      <path
         id="path5"
         d="m 471.1431,140.53592 c -2.07334,21.536 -7.42267,106.47733 29.95599,160.80267 41.81867,60.77733 96.88534,101.29466 159.24533,117.17333 62.98934,16.03866 98.948,28.81866 158.60667,66.46533 17.26533,10.896 39.77866,19.332 65.10529,24.4 61.0987,12.22 123.59342,2.42266 155.50802,-24.38534 24.3014,-20.41066 37.272,-44.28799 33.04,-60.82266 -2.6693,-10.428 -11.78,-14.32533 -18.9533,-15.76133 -5.7827,-1.15867 -12.6,-1.22 -20.256,-0.19734 -16.4747,2.208 -32.9827,1.69867 -49.06002,-1.51733 -36.0067,-7.20133 -70.676,-27.34267 -109.108,-63.384 -38.03999,-35.66933 -215.78799,-170.40799 -353.29065,-197.91199 -18.328,-3.668 -35.38667,-5.29734 -50.79333,-4.86134 m 410.49468,380.91733 c -26.78669,-5.36 -50.73469,-14.37067 -69.25869,-26.05734 -60.968,-38.47466 -95.64,-49.81466 -155.07467,-64.94799 -65.29333,-16.624 -122.81733,-58.856 -166.35066,-122.12933 -45.592,-66.26 -32.05733,-170.14267 -31.45866,-174.53467 0.39733,-2.912 2.79733,-5.13733 5.732,-5.31466 17.788,-1.072 37.68133,0.56 59.12533,4.84933 75.56266,15.116 159.66666,60.90266 216.91466,96.65333 68.30533,42.656 122.572,85.776 142.38399,104.35333 36.6853,34.40133 69.4453,53.55867 103.1,60.29067 14.74002,2.94933 29.88402,3.416 45.00532,1.39066 9.0094,-1.20933 17.192,-1.1 24.3107,0.32534 15.0387,3.008 25.148,11.808 28.468,24.78133 5.4827,21.42 -8.7133,49.51066 -37.0507,73.31066 -35.1653,29.54 -100.26402,40.14667 -165.84662,27.02934"
         style="fill:#352018;fill-opacity:1;fill-rule:nonzero;stroke:none;stroke-width:0.133333" />
      <path
         id="path6"
         d="m 5489.42,2522.59 c -59.1,0 -114.71,5.09 -165.98,15.35 -154.29,30.87 -271.54,108.19 -348.54,229.86 -212.81,336.37 -398.13,470.47 -793.17,573.97 -29.15,7.62 -58.8,14.44 -90.63,20.81 -70.81,14.16 -139.23,23.4 -205.4,32.33 -63.88,8.65 -124.24,16.79 -184.64,28.87 -186.66,37.33 -391.49,113.74 -624.45,417.3 -206.75,269.42 -472.22,341.63 -704.83,388.16 -43.39,8.68 -87.74,16.73 -130.64,24.54 -43.01,7.8 -87.47,15.89 -131.07,24.62 -179.3,35.87 -368.71,86.81 -539.09,215.66 -385.63,291.64 -376.81,843.52 -363.43,1017.3 27.96,-9.52 57.58,-17.39 89.4,-23.75 71.81,-14.37 151.1,-20.07 238.61,-20.06 142.91,0 307.67,15.21 497.09,32.69 261.31,24.12 575.85,53.15 952.12,53.15 306.29,0 653.48,-19.24 1046.13,-76.03 78.08,-11.29 155.38,-24.55 229.74,-39.44 1581.21,-316.29 1883.99,-1340.41 1940.77,-1766.05 71.99,-539.65 198.45,-907.95 255.04,-1053.67 -46.41,4.95 -111.78,9.82 -189.01,9.82 -118.77,0 -265.56,-11.54 -414.41,-52.13 -129.83,-35.41 -252.85,-53.3 -363.61,-53.3 m 417.53,542.6 c -88.51,0 -154.11,-23.72 -162.3,-64.65 -11.51,-57.53 94.74,-127.29 237.31,-155.8 41.14,-8.23 80.79,-12.13 116.69,-12.13 88.52,0 154.12,23.72 162.31,64.65 11.5,57.53 -94.75,127.29 -237.31,155.8 -41.14,8.23 -80.8,12.13 -116.7,12.13 M 4893.19,3491.4 c -106.44,0 -188.77,-35.58 -200.46,-94.07 -15.37,-76.7 96.58,-163.76 249.97,-194.43 36.46,-7.29 71.96,-10.75 105.13,-10.75 106.42,0 188.73,35.58 200.43,94.05 15.34,76.69 -96.6,163.76 -250,194.46 -36.43,7.29 -71.91,10.74 -105.07,10.74 m -1301.64,489.79 c -65.65,0 -113.07,-17.15 -125.78,-51.1 -24.46,-65.3 88.69,-168.04 252.72,-229.46 78.76,-29.48 154.9,-44.09 215.51,-44.09 65.64,0 113.06,17.15 125.77,51.09 24.46,65.31 -88.69,168.02 -252.73,229.46 -78.74,29.49 -154.88,44.1 -215.49,44.1 m 1031.25,335.76 c -95.52,0 -176.72,-36.37 -215.05,-106.16 -66.7,-121.49 21.81,-298.27 197.73,-394.83 74.85,-41.1 153.44,-61.05 224.2,-61.05 95.52,0 176.74,36.37 215.07,106.16 66.7,121.5 -21.84,298.26 -197.73,394.83 -74.85,41.1 -153.46,61.05 -224.22,61.05 m -1881.79,338.63 c -128.93,0 -230.07,-46.49 -245.12,-121.71 -19.34,-96.69 110.97,-204.31 291.05,-240.33 40.05,-8.01 79.15,-11.8 116.01,-11.8 128.92,0 230.06,46.48 245.11,121.67 19.34,96.73 -110.97,204.34 -291.05,240.36 -40.04,8.01 -79.15,11.81 -116,11.81 m 836.98,286.33 c -135.18,0 -246.78,-52.58 -286.68,-148.63 -61.98,-149.2 72.38,-346.82 300.08,-441.41 81.1,-33.69 163.08,-49.76 237.86,-49.76 135.19,0 246.78,52.56 286.68,148.63 61.97,149.19 -72.38,346.8 -300.1,441.41 -81.1,33.69 -163.06,49.76 -237.84,49.76 M 4733.9,5106.7 c -60.38,0 -102.42,-14.38 -115.41,-44.14 -31.97,-73.26 124.06,-212.04 348.53,-309.96 133.25,-58.14 260.63,-88.8 348.86,-88.8 60.38,0 102.42,14.37 115.41,44.14 31.96,73.25 -124.07,212.03 -348.54,309.96 -133.25,58.13 -260.63,88.8 -348.85,88.8 m -2850,218.08 c -118.4,0 -212.28,-45.22 -226.76,-117.55 -18.34,-91.73 97.9,-192.3 259.66,-224.66 34.18,-6.83 67.63,-10.08 99.34,-10.08 118.38,0 212.28,45.23 226.75,117.57 18.34,91.71 -97.9,192.27 -259.65,224.64 -34.17,6.84 -67.63,10.08 -99.34,10.08 m 754.82,3.3 c -45.04,0 -75.76,-9.69 -82.17,-29.28 -13.48,-41.21 85.65,-110.64 221.4,-155.07 71.21,-23.31 138.35,-35.1 188.05,-35.1 45.06,0 75.78,9.69 82.19,29.29 13.49,41.21 -85.64,110.63 -221.4,155.06 -71.22,23.3 -138.37,35.1 -188.07,35.1 m 1392.8,32.02 c -89.44,0 -157.47,-27.38 -166.64,-73.24 -12.34,-61.7 86.47,-133.49 220.69,-160.33 34.45,-6.89 67.88,-10.15 98.76,-10.15 89.45,0 157.48,27.37 166.65,73.23 12.35,61.7 -86.49,133.49 -220.72,160.34 -34.45,6.89 -67.86,10.15 -98.74,10.15"
         style="fill:url(#radialGradient7);fill-opacity:1;fill-rule:nonzero;stroke:none"
         transform="matrix(0.13333333,0,0,-0.13333333,256.32043,795.66124)"
         clip-path="url(#clipPath7)" />
      <path
         id="path8"
         d="m 801.80042,347.31725 c 4.244,0.84933 8.19733,1.75867 12.084,2.77467 52.672,13.8 77.38136,31.68 105.75596,76.52933 10.2667,16.22267 25.9,26.532 46.472,30.648 19.6467,3.92933 44.06542,2.18 70.61202,-5.06 32.752,-8.932 64.7534,-7.31333 80.456,-5.64133 -7.5453,-19.42934 -24.4066,-68.536 -34.0053,-140.48933 -7.5707,-56.752 -47.9413,-193.30133 -258.76935,-235.473326 -9.91466,-1.98534 -20.22133,-3.75334 -30.632,-5.25867 -116.67066,-16.87466 -203.23066,-8.884 -266.43332,-3.05067 -40.72,3.75867 -72.88,6.728 -98.09333,1.684 -4.24267,-0.848 -8.192,-1.89733 -11.92,-3.16666 -1.784,23.17066 -2.96,96.754656 48.45733,135.639986 22.71733,17.18 47.972,23.972 71.87866,28.75467 5.81334,1.164 11.74134,2.24267 17.476,3.28267 5.72,1.04133 11.63334,2.11466 17.41867,3.272 31.01467,6.204 66.41066,15.832 93.97733,51.75466 31.06133,40.47467 58.372,50.66267 83.26,55.64 8.05333,1.61067 16.10133,2.696 24.61866,3.84933 8.82267,1.19067 17.94534,2.42267 27.38667,4.31067 m 162.09196,121.04 c -23.7213,-4.744 -41.8266,-16.752 -53.808,-35.68933 -23.9573,-37.86534 -43.94663,-57.19467 -99.06796,-71.636 -3.66933,-0.96 -7.41067,-1.81867 -11.436,-2.624 -9.08667,-1.82 -18.032,-3.02534 -26.67867,-4.19467 -8.70266,-1.17733 -16.92133,-2.284 -25.32399,-3.96667 -27.052,-5.40933 -56.68,-16.40533 -90.01334,-59.84266 -22.724,-29.61333 -50.22266,-40.14933 -87.22266,-47.552 -5.68933,-1.13733 -11.55333,-2.20267 -17.22533,-3.23333 -5.78134,-1.052 -11.76134,-2.14 -17.672,-3.32134 -25.22534,-5.04666 -51.95067,-12.27333 -76.48133,-30.82533 -27.684,-20.936 -45.464,-54.184 -51.41867,-96.148 -4.45067,-31.371996 -0.83333,-56.302656 -0.676,-57.347996 0.26267,-1.75466 1.33333,-3.28533 2.892,-4.13199 1.56133,-0.84667 3.42533,-0.912 5.04267,-0.17867 4.99333,2.27333 10.44266,3.98133 16.66266,5.22533 23.59734,4.72 55.03334,1.81867 94.83333,-1.856 63.768,-5.88533 151.09733,-13.948 269.09466,3.12 10.612,1.53467 21.116,3.33733 31.23067,5.36133 86.07066,17.21467 153.56536,51.813336 200.61198,102.830666 46.5507,50.48 62.2094,105.21333 67.1494,142.23733 12.144,91.03733 36.6573,146.02266 36.9,146.56799 0.868,1.91467 0.6,4.14934 -0.692,5.80934 -1.2947,1.656 -3.3974,2.45733 -5.4667,2.08266 -0.42,-0.076 -42.972,-7.50266 -85.428,4.076 -28.2333,7.7 -54.44672,9.51067 -75.80672,5.23734"
         style="fill:#352018;fill-opacity:1;fill-rule:nonzero;stroke:none;stroke-width:0.133333" />
      <path
         id="path9"
         d="m 1055.6018,433.51058 c -56.19742,0.484 -95.65072,26.084 -143.79602,-34.62533 -48.14936,-60.70933 -74.71603,-57.65333 -127.85869,-64.096 -53.14,-6.44133 -83.57333,-17.55333 -105.47333,-54.592 -21.89867,-37.03866 -36.87334,-45.89733 -67.95333,-49.60133 -31.07867,-3.70533 -93.23467,-6.928 -142.50933,-49.44133 -38.464,-33.18533 -41.69867,-97.078666 -41.268,-123.519996 -5.06934,-1.21333 -9.828,-2.79467 -14.28267,-4.82267 0,0 -14.81867,99.195996 49.91467,148.150666 64.73199,48.956 146.53733,16.75466 199.67466,85.996 53.13733,69.24399 96.29466,54.42933 150.40133,68.60533 54.104,14.176 76.32799,32.85466 102.41199,74.07733 26.0853,41.22533 79.0627,40.10133 123.34802,28.024 44.284,-12.07733 87.924,-4.18534 87.924,-4.18534 0,0 -1.8147,-4.02399 -4.6933,-11.66533 -14.7467,-5.94133 -34.548,-8.57333 -65.84,-8.304"
         style="fill:#f5f014;fill-opacity:1;fill-rule:nonzero;stroke:none;stroke-width:0.133333" />
      <path
         id="path10"
         d="m 801.17642,350.44792 c 4.17867,0.836 8.072,1.728 11.89867,2.73333 51.74,13.55467 76.00669,31.112 103.86929,75.14667 10.7494,16.984 27.0787,27.77466 48.5414,32.07066 l 0.01,0.001 c 20.1254,4.02534 45.04672,2.25867 72.07072,-5.11066 36.1653,-9.86267 72.2933,-6.49867 84.5947,-4.888 -0.6987,-1.708 -1.5867,-3.944 -2.6334,-6.696 -14.7533,-5.70267 -33.7573,-7.99067 -63.9,-7.73067 -13.1946,0.11334 -25.416,1.62 -37.236,3.076 -17.7693,2.192 -34.55202,4.26267 -51.12932,0.948 l -0.01,-10e-4 c -21.0734,-4.21467 -39.3067,-16.792 -57.3787,-39.58267 -32.3013,-40.72666 -54.81733,-52.11466 -80.68266,-57.28933 -9.432,-1.884 -19.312,-2.964 -30.75067,-4.21333 -4.708,-0.51467 -9.624,-1.05334 -14.79066,-1.67867 -10.84667,-1.31467 -20.08134,-2.74533 -28.23333,-4.37733 -39.72,-7.944 -61.888,-22.35733 -79.06534,-51.404 -18.11466,-30.64267 -31.448,-41.98133 -54.86933,-46.66533 -3.352,-0.67067 -7.032,-1.24134 -11.25333,-1.744 -2.68133,-0.32 -5.59333,-0.636 -8.708,-0.97334 -11.49333,-1.24666 -25.796,-2.8 -41.45867,-5.93333 -38.26933,-7.65333 -68.90533,-21.75733 -93.66133,-43.116 -38.37066,-33.104 -42.376,-95.921326 -42.14533,-123.467996 -3.452,-0.90133 -6.67067,-1.952 -9.736,-3.18133 -1.77467,17.26667 -7,100.019996 49.34,142.626656 23.228,17.568 48.89733,24.484 73.176,29.34 5.84133,1.16934 11.784,2.248 17.532,3.296 5.70533,1.036 11.60666,2.108 17.364,3.25867 30.44533,6.09067 65.17866,15.524 92.07199,50.568 31.70267,41.312 59.66667,51.72666 85.16534,56.82666 8.15066,1.63067 16.24533,2.724 24.81733,3.88134 8.77333,1.18666 17.84533,2.41066 27.18933,4.28 z m 163.34936,114.78399 -0.01,-0.001 c -22.832,-4.57067 -40.24,-16.09866 -51.736,-34.27066 -24.4227,-38.59867 -44.796,-58.30134 -100.95469,-73.01467 -3.73334,-0.97867 -7.532,-1.85067 -11.61867,-2.668 -9.188,-1.83733 -18.184,-3.05067 -26.88133,-4.22667 -8.64934,-1.16933 -16.81867,-2.272 -25.124,-3.932 -26.44,-5.28933 -55.41467,-16.05733 -88.108,-58.65866 -25.85333,-33.69067 -59.56266,-42.82267 -89.12933,-48.736 -5.71467,-1.144 -11.592,-2.212 -17.28,-3.24533 -5.76667,-1.04934 -11.732,-2.13334 -17.61467,-3.31067 -24.85333,-4.97067 -51.16399,-12.076 -75.18266,-30.24 -34.108,-25.79466 -46.11733,-65.38533 -50.18533,-94.052 -4.38534,-30.918656 -0.83334,-55.399996 -0.67867,-56.426656 0.11467,-0.76534 0.58,-1.432 1.26,-1.80134 0.67867,-0.36933 1.492,-0.39866 2.196,-0.0773 4.23067,1.924 8.75733,3.45067 13.836,4.66933 1.12267,0.268 1.908,1.28134 1.88933,2.43467 -0.41866,25.72 2.68134,89.059996 40.41467,121.617326 24.096,20.788 53.99466,34.532 91.40933,42.01333 15.44667,3.08934 29.62667,4.62934 41.02267,5.864 3.13466,0.34134 6.064,0.65867 8.76,0.98 4.35066,0.51734 8.15733,1.10934 11.63733,1.80534 25.052,5.012 39.18,16.916 58.144,48.988 16.37066,27.68933 37.62,41.44799 75.78933,49.08266 8.02666,1.608 17.14,3.01867 27.86133,4.31867 5.14533,0.62266 10.04,1.15866 14.73333,1.67066 11.556,1.26267 21.536,2.34934 31.18134,4.28267 26.95733,5.39067 50.34129,17.152 83.57469,59.05867 17.3066,21.82133 34.62,33.83866 54.4853,37.812 l 0.01,0.001 c 15.7933,3.15867 32.19472,1.13467 49.55872,-1.00533 11.956,-1.476 24.3213,-3.00134 37.7946,-3.11734 31.5707,-0.26666 51.2307,2.21867 66.7827,8.48134 0.64,0.25866 1.1413,0.772 1.384,1.41866 2.8107,7.46134 4.6147,11.48133 4.6347,11.52133 0.376,0.83467 0.2573,1.808 -0.3067,2.52934 -0.56,0.72 -1.4773,1.06933 -2.3787,0.90666 -0.4306,-0.0773 -43.636,-7.64399 -86.8373,4.136 -27.756,7.572 -53.46132,9.36667 -74.33332,5.192"
         style="fill:#352018;fill-opacity:1;fill-rule:nonzero;stroke:none;stroke-width:0.133333" />
      <path
         id="path11"
         d="m 2016.14,4972.49 c -31.71,0 -65.16,3.25 -99.34,10.08 -161.76,32.36 -278,132.93 -259.66,224.66 14.48,72.33 108.36,117.55 226.76,117.55 31.71,0 65.17,-3.24 99.34,-10.08 161.75,-32.37 277.99,-132.93 259.65,-224.64 -14.47,-72.34 -108.37,-117.57 -226.75,-117.57"
         style="fill:url(#radialGradient12);fill-opacity:1;fill-rule:nonzero;stroke:none"
         transform="matrix(0.13333333,0,0,-0.13333333,256.32043,795.66124)"
         clip-path="url(#clipPath12)" />
      <path
         id="path13"
         d="m 2902.95,4281.74 c -36.86,0 -75.96,3.79 -116.01,11.8 -180.08,36.02 -310.39,143.64 -291.05,240.33 15.05,75.22 116.19,121.71 245.12,121.71 36.85,0 75.96,-3.8 116,-11.81 180.08,-36.02 310.39,-143.63 291.05,-240.36 -15.05,-75.19 -116.19,-121.67 -245.11,-121.67"
         style="fill:url(#radialGradient14);fill-opacity:1;fill-rule:nonzero;stroke:none"
         transform="matrix(0.13333333,0,0,-0.13333333,256.32043,795.66124)"
         clip-path="url(#clipPath14)" />
      <path
         id="path15"
         d="m 3829.25,4302.11 c -74.78,0 -156.76,16.07 -237.86,49.76 -227.7,94.59 -362.06,292.21 -300.08,441.41 39.9,96.05 151.5,148.63 286.68,148.63 74.78,0 156.74,-16.07 237.84,-49.76 227.72,-94.61 362.07,-292.22 300.1,-441.41 -39.9,-96.07 -151.49,-148.63 -286.68,-148.63"
         style="fill:url(#radialGradient16);fill-opacity:1;fill-rule:nonzero;stroke:none"
         transform="matrix(0.13333333,0,0,-0.13333333,256.32043,795.66124)"
         clip-path="url(#clipPath16)" />
      <path
         id="path17"
         d="m 5315.88,4663.8 c -88.23,0 -215.61,30.66 -348.86,88.8 -224.47,97.92 -380.5,236.7 -348.53,309.96 12.99,29.76 55.03,44.14 115.41,44.14 88.22,0 215.6,-30.67 348.85,-88.8 224.47,-97.93 380.5,-236.71 348.54,-309.96 -12.99,-29.77 -55.03,-44.14 -115.41,-44.14"
         style="fill:url(#radialGradient18);fill-opacity:1;fill-rule:nonzero;stroke:none"
         transform="matrix(0.13333333,0,0,-0.13333333,256.32043,795.66124)"
         clip-path="url(#clipPath18)" />
      <path
         id="path19"
         d="m 4184.33,5116.38 c -30.88,0 -64.31,3.26 -98.76,10.15 -134.22,26.84 -233.03,98.63 -220.69,160.33 9.17,45.86 77.2,73.24 166.64,73.24 30.88,0 64.29,-3.26 98.74,-10.15 134.23,-26.85 233.07,-98.64 220.72,-160.34 -9.17,-45.86 -77.2,-73.23 -166.65,-73.23"
         style="fill:url(#radialGradient20);fill-opacity:1;fill-rule:nonzero;stroke:none"
         transform="matrix(0.13333333,0,0,-0.13333333,256.32043,795.66124)"
         clip-path="url(#clipPath20)" />
      <path
         id="path21"
         d="m 4829.68,3754.91 c -70.76,0 -149.35,19.95 -224.2,61.05 -175.92,96.56 -264.43,273.34 -197.73,394.83 38.33,69.79 119.53,106.16 215.05,106.16 70.76,0 149.37,-19.95 224.22,-61.05 175.89,-96.57 264.43,-273.33 197.73,-394.83 -38.33,-69.79 -119.55,-106.16 -215.07,-106.16"
         style="fill:url(#radialGradient22);fill-opacity:1;fill-rule:nonzero;stroke:none"
         transform="matrix(0.13333333,0,0,-0.13333333,256.32043,795.66124)"
         clip-path="url(#clipPath22)" />
      <path
         id="path23"
         d="m 3934,3656.54 c -60.61,0 -136.75,14.61 -215.51,44.09 -164.03,61.42 -277.18,164.16 -252.72,229.46 12.71,33.95 60.13,51.1 125.78,51.1 60.61,0 136.75,-14.61 215.49,-44.1 164.04,-61.44 277.19,-164.15 252.73,-229.46 -12.71,-33.94 -60.13,-51.09 -125.77,-51.09"
         style="fill:url(#radialGradient24);fill-opacity:1;fill-rule:nonzero;stroke:none"
         transform="matrix(0.13333333,0,0,-0.13333333,256.32043,795.66124)"
         clip-path="url(#clipPath24)" />
      <path
         id="path25"
         d="m 5047.83,3192.15 c -33.17,0 -68.67,3.46 -105.13,10.75 -153.39,30.67 -265.34,117.73 -249.97,194.43 11.69,58.49 94.02,94.07 200.46,94.07 33.16,0 68.64,-3.45 105.07,-10.74 153.4,-30.7 265.34,-117.77 250,-194.46 -11.7,-58.47 -94.01,-94.05 -200.43,-94.05"
         style="fill:url(#radialGradient26);fill-opacity:1;fill-rule:nonzero;stroke:none"
         transform="matrix(0.13333333,0,0,-0.13333333,256.32043,795.66124)"
         clip-path="url(#clipPath26)" />
      <path
         id="path27"
         d="m 2966,5108.63 c -49.7,0 -116.84,11.79 -188.05,35.1 -135.75,44.43 -234.88,113.86 -221.4,155.07 6.41,19.59 37.13,29.28 82.17,29.28 49.7,0 116.85,-11.8 188.07,-35.1 135.76,-44.43 234.89,-113.85 221.4,-155.06 -6.41,-19.6 -37.13,-29.29 -82.19,-29.29"
         style="fill:url(#radialGradient28);fill-opacity:1;fill-rule:nonzero;stroke:none"
         transform="matrix(0.13333333,0,0,-0.13333333,256.32043,795.66124)"
         clip-path="url(#clipPath28)" />
      <path
         id="path29"
         d="m 6098.65,2832.61 c -35.9,0 -75.55,3.9 -116.69,12.13 -142.57,28.51 -248.82,98.27 -237.31,155.8 8.19,40.93 73.79,64.65 162.3,64.65 35.9,0 75.56,-3.9 116.7,-12.13 142.56,-28.51 248.81,-98.27 237.31,-155.8 -8.19,-40.93 -73.79,-64.65 -162.31,-64.65"
         style="fill:url(#radialGradient30);fill-opacity:1;fill-rule:nonzero;stroke:none"
         transform="matrix(0.13333333,0,0,-0.13333333,256.32043,795.66124)"
         clip-path="url(#clipPath30)" />
      <path
         id="path31"
         d="m 1008.1058,273.28525 c -5.9347,0.74 -27.53602,7.888 -16.59072,36.876 10.95072,28.984 10.94932,37.36133 -2.416,53.94267 -13.364,16.58533 8.2133,34.30266 37.84402,3.38266 29.6293,-30.916 19.8093,-99.03199 -18.8373,-94.20133"
         style="fill:#80cc2a;fill-opacity:1;fill-rule:nonzero;stroke:none;stroke-width:0.133333" />
      <path
         id="path32"
         d="m 1016.5751,277.18525 c -2.5187,-0.504 -5.216,-0.584 -8.012,-0.23466 -3.2147,0.40266 -10.26132,2.76666 -13.92932,8.84933 -3.4134,5.65867 -3.3,13.41867 0.3386,23.05333 10.90142,28.85467 11.75472,39.26933 -2.9973,57.56933 -2.8347,3.51734 -3.8733,7.156 -2.8493,9.97867 0.7613,2.10267 2.668,3.55867 5.372,4.09867 2.924,0.584 13.71332,1.19066 29.77862,-15.568 16.6974,-17.42534 19.3627,-45.85867 13.364,-64.94133 -2.3306,-7.41067 -8.164,-20.22667 -21.0653,-22.80534 z m -23.52672,110.56 v 0 c -5.256,-1.05067 -9.2187,-4.26933 -10.8693,-8.82933 -1.9227,-5.30934 -0.448,-11.55334 4.0453,-17.12934 12.2027,-15.14133 12.4613,-22.19733 1.8387,-50.31999 -4.48,-11.86534 -4.4,-21.784 0.2453,-29.484 5.1227,-8.496 14.56802,-11.768 19.34132,-12.36534 3.5854,-0.44533 7.0774,-0.34 10.376,0.32 12.3267,2.46667 21.7974,12.352 26.664,27.836 6.652,21.15733 3.6094,52.772 -15.0786,72.272 -12.7827,13.34 -26.1107,19.79333 -36.56142,17.7"
         style="fill:#352018;fill-opacity:1;fill-rule:nonzero;stroke:none;stroke-width:0.133333" />
      <path
         id="path33"
         d="m 1051.1018,246.71459 c -4.98,24.90133 -29.2067,41.05066 -54.10802,36.07066 -24.9027,-4.98266 -41.0507,-29.20666 -36.0694,-54.10933 4.9814,-24.90133 29.2054,-41.05067 54.10672,-36.06933 24.9027,4.98266 41.0507,29.20666 36.0707,54.108"
         style="fill:#ffffff;fill-opacity:1;fill-rule:nonzero;stroke:none;stroke-width:0.133333" />
      <path
         id="path34"
         d="m 1014.4178,195.68259 c -23.16672,-4.63467 -45.78542,10.44266 -50.41872,33.60933 -4.6347,23.168 10.444,45.78667 33.6093,50.42 23.16672,4.63333 45.78402,-10.44533 50.41742,-33.61067 4.636,-23.168 -10.4427,-45.78533 -33.608,-50.41866 z m -18.03872,90.176 c -26.5573,-5.312 -43.8427,-31.23867 -38.5307,-57.79734 5.3134,-26.556 31.2427,-43.84 57.79742,-38.528 26.5573,5.312 43.8426,31.24 38.5306,57.79734 -5.3146,26.55733 -31.2426,43.84133 -57.79732,38.528"
         style="fill:#352018;fill-opacity:1;fill-rule:nonzero;stroke:none;stroke-width:0.133333" />
      <path
         id="path35"
         d="m 1036.7551,243.84525 c -3.396,16.97734 -19.9093,27.992 -36.89202,24.59334 -16.98,-3.396 -27.988,-19.91334 -24.592,-36.892 3.3947,-16.97867 19.9093,-27.98934 36.89332,-24.592 16.98,3.39733 27.9867,19.912 24.5907,36.89066"
         style="fill:#352018;fill-opacity:1;fill-rule:nonzero;stroke:none;stroke-width:0.133333" />
      <path
         id="path36"
         d="m 999.48178,226.80792 c -1.5307,7.656 -8.9787,12.61867 -16.6334,11.088 -7.656,-1.532 -12.62,-8.97867 -11.0906,-16.63467 1.5333,-7.656 8.98,-12.62 16.636,-11.08933 7.6546,1.532 12.62002,8.98 11.088,16.636"
         style="fill:#ffffff;fill-opacity:1;fill-rule:nonzero;stroke:none;stroke-width:0.133333" />
      <path
         id="path37"
         d="m 1139.7938,280.97859 c -5.736,-1.69067 -28.396,-3.77467 -29.9467,27.16933 -1.5533,30.95066 -4.9013,38.62666 -23.7813,48.48533 -18.8827,9.856 -6.1814,34.72267 33.3386,18.22667 39.5147,-16.49734 57.7454,-82.85467 20.3894,-93.88133"
         style="fill:#80cc2a;fill-opacity:1;fill-rule:nonzero;stroke:none;stroke-width:0.133333" />
      <path
         id="path38"
         d="m 1137.6284,284.25325 c -2.164,-0.43066 -9.7013,-1.48133 -15.7613,3.24 -5.032,3.91867 -7.8333,10.92934 -8.3293,20.84134 -1.5467,30.80533 -4.928,40.69333 -25.764,51.57333 -4.5134,2.356 -7.0254,5.872 -6.5534,9.172 0.484,3.39066 3.9107,6.04266 9.172,7.09466 v 0 c 5.0147,1.00534 13.8707,0.99734 27.584,-4.724 24.4547,-10.208 39.62,-40.332 38.4427,-62.06133 -0.4947,-9.11066 -3.9627,-20.81866 -17.6747,-24.86533 -0.3107,-0.092 -0.6867,-0.18267 -1.1187,-0.27067 z m -48.684,99.168 v 0 c -8.4707,-1.69333 -14.092,-6.66667 -15.0374,-13.296 -0.928,-6.492 3.0747,-12.91867 10.448,-16.76933 17.2414,-9 20.296,-15.36134 21.8014,-45.39067 0.6106,-12.15466 4.3693,-21.00533 11.172,-26.30266 8.5386,-6.648 18.808,-5.244 21.7533,-4.65467 0.676,0.13467 1.2693,0.284 1.7613,0.428 13.724,4.052 22.0907,15.55067 22.9614,31.55467 1.3106,24.14399 -14.7494,57.49599 -42.9774,69.27999 -12.216,5.09867 -23.2426,6.87867 -31.88,5.15067"
         style="fill:#352018;fill-opacity:1;fill-rule:nonzero;stroke:none;stroke-width:0.133333" />
      <path
         id="path39"
         d="m 1192.7684,266.40392 c -4.98,24.89867 -29.2066,41.05333 -54.1066,36.06933 -24.904,-4.98133 -41.0507,-29.20666 -36.0707,-54.108 4.9813,-24.90133 29.2053,-41.05066 54.1067,-36.06933 24.9053,4.98133 41.052,29.20533 36.0706,54.108"
         style="fill:#ffffff;fill-opacity:1;fill-rule:nonzero;stroke:none;stroke-width:0.133333" />
      <path
         id="path40"
         d="m 1156.0831,215.37059 c -23.1653,-4.63467 -45.784,10.44266 -50.4173,33.60933 -4.6347,23.16667 10.444,45.78533 33.6093,50.41867 23.168,4.63333 45.7853,-10.444 50.4187,-33.60934 4.6346,-23.168 -10.4414,-45.78533 -33.6107,-50.41866 z m -18.0373,90.17733 c -26.5574,-5.312 -43.8414,-31.24133 -38.5294,-57.79733 5.3147,-26.55867 31.2414,-43.84 57.7987,-38.528 26.5547,5.31066 43.84,31.23866 38.528,57.79733 -5.3133,26.556 -31.2413,43.83867 -57.7973,38.528"
         style="fill:#352018;fill-opacity:1;fill-rule:nonzero;stroke:none;stroke-width:0.133333" />
      <path
         id="path41"
         d="m 1178.4218,263.53325 c -3.396,16.98 -19.9094,27.99067 -36.892,24.59334 -16.9787,-3.39467 -27.988,-19.912 -24.592,-36.892 3.396,-16.97867 19.9106,-27.988 36.892,-24.592 16.98,3.39733 27.988,19.91333 24.592,36.89066"
         style="fill:#352018;fill-opacity:1;fill-rule:nonzero;stroke:none;stroke-width:0.133333" />
      <path
         id="path42"
         d="m 1141.1484,246.49459 c -1.5306,7.65733 -8.9773,12.62133 -16.6333,11.08933 -7.6547,-1.53067 -12.62,-8.97733 -11.0907,-16.63333 1.5334,-7.656 8.98,-12.62134 16.636,-11.08934 7.6547,1.53067 12.6214,8.97867 11.088,16.63334"
         style="fill:#ffffff;fill-opacity:1;fill-rule:nonzero;stroke:none;stroke-width:0.133333" />
      <path
         id="path43"
         d="m 3372.72,5275.41 c 161.26,11.11 314.02,31.39 396.16,316.41 82.13,285.02 88.17,566.42 298.32,675.11 210.16,108.69 169.09,154.58 9.67,142.51 -159.42,-12.08 -371.98,-164.24 -396.14,-347.81 -24.17,-183.58 -135.27,171.49 76.09,349.03 211.37,177.52 329.71,235.49 340.6,384.04 0,0 -38.65,-99.03 -268.12,-147.33 -229.47,-48.31 -492.78,-297.09 -440.85,-571.24 0,0 -77.28,210.15 7.26,413.04 84.55,202.89 146.16,322.44 -135.24,485.51 0,0 106.27,-253.64 -68.85,-438.41 -175.14,-184.78 -141.32,-361.09 -102.68,-513.27 0,0 -13.28,247.57 -229.46,297.1 -216.19,49.53 -194.44,221.02 -176.32,343 0,0 -233.1,-286.22 -77.31,-449.26 155.79,-163.06 317.63,-170.3 317.62,-327.32 0,0 -118.34,161.84 -281.39,100.25 -163.05,-61.58 -328.5,84.55 -357.49,190.83 0,0 88.15,-469.8 328.49,-524.15 240.34,-54.36 187.2,-68.87 339.37,-218.62 152.16,-149.76 280.18,-169.08 420.27,-159.42"
         style="fill:url(#linearGradient44);fill-opacity:1;fill-rule:nonzero;stroke:none"
         transform="matrix(0.13333333,0,0,-0.13333333,256.32043,795.66124)"
         clip-path="url(#clipPath44)" />
      <path
         id="path45"
         d="m 570.06576,-8.356066 c 6.04667,18.16666 17.38,42.528 35.48,46.62133 24.176,5.468 27.17466,8.07333 35.98266,18.23333 2.672,3.084 6,6.92 11.044,11.88533 11.00934,10.836 21.56534,16.96934 33.21867,19.30134 h 10e-4 c 5.86134,1.172 12.01867,1.44933 19.972,0.90266 19.12667,-1.31733 38.90534,-2.68 49.52267,-39.52533 2.56,-8.88133 4.564,-17.76933 6.50533,-26.36533 6.276,-27.796 12.2,-54.052 35.124,-65.907999 12.35733,-6.392 15.84533,-9.98 16.812,-11.354667 -0.34933,-0.134666 -0.86533,-0.296 -1.60267,-0.444 -1.89066,-0.377333 -5.49466,-0.724 -11.944,-0.237333 -20.01733,1.517333 -46.53066,21.111999 -49.43466,43.173329 -0.65067,4.948 -1.79867,7.768 -3.72267,9.144 -1.088,0.77867 -2.39066,1.068 -3.66666,0.81334 -2.57734,-0.516 -4.39067,-2.95467 -5.54267,-7.45467 -3.09867,-12.104 -1.21333,-37.021333 17.03867,-52.350666 5.83066,-4.897333 11.16266,-9.139999 15.86799,-12.883999 11.44134,-9.102667 19.28267,-15.341333 23.76667,-22.261333 -5.77867,3.653333 -14.316,7.393333 -26.83467,10.028 -27.25866,5.738666 -62.59066,36.586666 -55.90933,71.862668 0.35734,1.888 -0.792,3.736 -2.64533,4.248 -1.85467,0.512 -3.78933,-0.48267 -4.452,-2.28534 -0.44267,-1.2 -10.67067,-29.702663 1.024,-57.769329 l 1.07333,-2.569333 c 9.664,-23.081333 14.952,-35.710662 -9.35733,-52.408002 2.752,12.50934 4.212,34.673336 -12.836,52.660002 -18.22133,19.225333 -18.03067,37.576002 -15.74,51.477332 2.68267,7.71067 3.04267,13.956 3.05733,14.21867 0.10134,1.9 -1.25333,3.56666 -3.13333,3.85066 -1.87867,0.288 -3.66933,-0.9 -4.13733,-2.74266 -1.06134,-4.17734 -2.152,-8.696 -2.96667,-13.468 -3.21733,-8.90267 -10.13467,-20.07734 -24.872,-23.453336 -23.41866,-5.365333 -27.924,-21.085333 -27.78666,-35.010666 -6.904,12.172 -14.12,30.898666 -2.53467,43.025332 7.70133,8.05867 15.51867,13.15467 22.41466,17.652 11.24667,7.33067 20.96134,13.66267 20.96,28.54267 0,1.59733 -1.02933,3.01466 -2.548,3.51066 -1.52133,0.496 -3.18666,-0.04 -4.13066,-1.33066 -0.076,-0.10267 -8.14667,-10.884 -19.996,-13.25467003 -4.404,-0.88132997 -8.85733,-0.48933 -13.23467,1.164 -6.06533,2.29067003 -12.456,2.78933003 -18.99466,1.48267003 -7.87334,-1.57467003 -15.088,-5.64534 -20.84267,-10.72 z m 114.27866,103.28799 -10e-4,-10e-4 c -13.13067,-2.62667 -24.872,-9.388 -36.956,-21.28 -5.252,-5.17067 -8.68533,-9.12933 -11.444,-12.31333 -7.696,-8.876 -9.29733,-10.72267 -32.02666,-15.864 -34.024,-7.69467 -46.116,-70.15733 -46.61467,-72.812 -0.36667,-1.948 0.872,-3.83733 2.804,-4.28267 1.93467,-0.44133 3.87067,0.71734 4.392,2.62934 2.58133,9.46933 14.39333,21.416 27.86,24.10933 5.15867,1.032 10.184,0.64533 14.93467,-1.14933 5.692,-2.14934 11.50933,-2.65334 17.29333,-1.49734 4.89466,0.98 9.204,3.03334 12.78666,5.35734 -3.01333,-3.168 -7.28133,-5.95067 -12.55466,-9.38934 -6.87467,-4.48133 -15.43067,-10.05866 -23.72267,-18.736 -22.76266,-23.822662 8.76134,-63.126661 10.11467,-64.787995 1.052,-1.290666 2.836,-1.718666 4.35733,-1.048 1.52134,0.672 2.408,2.277334 2.16267,3.924 -2.89467,19.498666 -3.33733,36.086666 20.68,41.589333 10.02,2.295999 17.048,7.467999 21.97333,13.440002 0.58667,-12.452002 4.96267,-26.600002 18.804,-41.204002 21.44533,-22.625332 8.588,-54.168002 8.456,-54.482662 -0.61467,-1.464 -0.224,-3.156 0.968,-4.204 1.18933,-1.04667 2.91733,-1.21867 4.29067,-0.42134 39.13066,22.67334 31.38266,41.180003 20.66,66.794669 l -1.06934,2.557333 c -3.22933,7.750666 -4.57733,15.637333 -4.88933,22.858666 9.94933,-25.337333 36.20267,-44.289332 58.52933,-48.987999 27.74,-5.839999 33.04533,-17.322669 33.096,-17.438669 0.66533,-1.70266 2.476,-2.62266 4.24267,-2.22666 1.78266,0.40266 2.99066,2.08266 2.85733,3.90666 -1.27067,17.348003 -12.46267,26.253336 -31.00533,41.005335 -4.668,3.714667 -9.96134,7.925333 -15.71734,12.758667 -13.81733,11.607999 -16.20133,29.090662 -15.48266,39.386662 5.63867,-24.095996 33.45866,-44.067996 55.5,-45.737329 5.85066,-0.442666 10.544,-0.321333 13.94933,0.36 5.904,1.18 7.516,4.094667 7.832,6.332 0.544,3.856 -1.53733,9.161333 -21.092,19.275999 -19.86933,10.27467 -25.17067,33.768 -31.31067,60.972 -1.96533,8.69867 -3.996,17.69467 -6.61333,26.78266 -12.04933,41.816 -36.484,43.49867 -56.11733,44.852 -8.51733,0.58667 -15.48533,0.26 -21.92667,-1.028"
         style="fill:#352018;fill-opacity:1;fill-rule:nonzero;stroke:none;stroke-width:0.133333" />
      <path
         id="path46"
         d="m 666.38842,47.007934 c -4.46933,-0.89467 -5.856,6.03733 -1.38533,6.93066 4.468,0.89333 5.85467,-6.03733 1.38533,-6.93066"
         style="fill:#99198e;fill-opacity:1;fill-rule:nonzero;stroke:none;stroke-width:0.133333" />
      <path
         id="path47"
         d="m 684.68709,27.602594 c -4.46933,-0.89466 -5.856,6.036 -1.38667,6.93067 4.46934,0.89333 5.85467,-6.03733 1.38667,-6.93067"
         style="fill:#99198e;fill-opacity:1;fill-rule:nonzero;stroke:none;stroke-width:0.133333" />
      <path
         id="path48"
         d="m 701.32176,12.907934 c -4.46934,-0.89334 -5.856,6.03866 -1.38667,6.932 4.46933,0.89333 5.856,-6.03734 1.38667,-6.932"
         style="fill:#99198e;fill-opacity:1;fill-rule:nonzero;stroke:none;stroke-width:0.133333" />
      <path
         id="path49"
         d="m 700.34976,53.801264 c -4.46934,-0.89334 -5.85467,6.036 -1.38667,6.93066 4.46933,0.89467 5.856,-6.036 1.38667,-6.93066"
         style="fill:#99198e;fill-opacity:1;fill-rule:nonzero;stroke:none;stroke-width:0.133333" />
      <path
         id="path50"
         d="m 736.11376,33.563934 c -4.46934,-0.89467 -5.856,6.03733 -1.38667,6.93066 4.46933,0.89467 5.856,-6.036 1.38667,-6.93066"
         style="fill:#99198e;fill-opacity:1;fill-rule:nonzero;stroke:none;stroke-width:0.133333" />
      <path
         id="path51"
         d="m 745.67909,14.573264 c -4.46933,-0.89333 -5.856,6.03733 -1.38667,6.93067 4.47067,0.89333 5.856,-6.03734 1.38667,-6.93067"
         style="fill:#99198e;fill-opacity:1;fill-rule:nonzero;stroke:none;stroke-width:0.133333" />
      <path
         id="path52"
         d="m 662.50842,15.957264 c -4.46933,-0.89467 -5.85466,6.03733 -1.38666,6.93067 4.46933,0.89466 5.856,-6.036 1.38666,-6.93067"
         style="fill:#99198e;fill-opacity:1;fill-rule:nonzero;stroke:none;stroke-width:0.133333" />
      <path
         id="path53"
         d="m 728.07376,62.950594 c -4.46934,-0.89333 -5.856,6.03733 -1.388,6.932 4.47066,0.89333 5.856,-6.03733 1.388,-6.932"
         style="fill:#99198e;fill-opacity:1;fill-rule:nonzero;stroke:none;stroke-width:0.133333" />
      <path
         id="path54"
         d="m 684.26976,72.930594 c -4.46934,-0.89467 -5.856,6.036 -1.388,6.92933 4.47066,0.89467 5.856,-6.036 1.388,-6.92933"
         style="fill:#99198e;fill-opacity:1;fill-rule:nonzero;stroke:none;stroke-width:0.133333" />
      <path
         id="path55"
         d="m 1142.1244,615.64258 c 0,7.32 -90.6586,13.25333 -202.49202,13.25333 -111.83196,0 -202.49329,-5.93333 -202.49329,-13.25333 0,-7.31734 90.66133,-13.25067 202.49329,-13.25067 111.83342,0 202.49202,5.93333 202.49202,13.25067"
         style="fill:#d3d4d3;fill-opacity:1;fill-rule:nonzero;stroke:none;stroke-width:0.133333" />
    </g>
  </g>
</svg>
